G04 #@! TF.FileFunction,Other,User*
%FSLAX46Y46*%
G04 Gerber Fmt 4.6, Leading zero omitted, Abs format (unit mm)*
G04 Created by KiCad (PCBNEW 4.0.7) date 09/18/18 19:10:44*
%MOMM*%
%LPD*%
G01*
G04 APERTURE LIST*
%ADD10C,0.100000*%
%ADD11C,0.050000*%
%ADD12C,0.150000*%
%ADD13C,0.125000*%
G04 APERTURE END LIST*
D10*
D11*
X108670000Y-118860000D02*
X111870000Y-118860000D01*
X111870000Y-118860000D02*
X111870000Y-131160000D01*
X111870000Y-131160000D02*
X108670000Y-131160000D01*
X108670000Y-131160000D02*
X108670000Y-118860000D01*
D12*
X153110000Y-131250000D02*
X153110000Y-127250000D01*
X141610000Y-131250000D02*
X141610000Y-127250000D01*
X141610000Y-127250000D02*
X153110000Y-127250000D01*
X141610000Y-131250000D02*
X153110000Y-131250000D01*
D13*
X148359998Y-130214286D02*
X148193332Y-130214286D01*
X148121903Y-130476190D02*
X148359998Y-130476190D01*
X148359998Y-129976190D01*
X148121903Y-129976190D01*
X147907617Y-130285714D02*
X147526665Y-130285714D01*
X147312379Y-130452381D02*
X147240950Y-130476190D01*
X147121903Y-130476190D01*
X147074284Y-130452381D01*
X147050474Y-130428571D01*
X147026665Y-130380952D01*
X147026665Y-130333333D01*
X147050474Y-130285714D01*
X147074284Y-130261905D01*
X147121903Y-130238095D01*
X147217141Y-130214286D01*
X147264760Y-130190476D01*
X147288569Y-130166667D01*
X147312379Y-130119048D01*
X147312379Y-130071429D01*
X147288569Y-130023810D01*
X147264760Y-130000000D01*
X147217141Y-129976190D01*
X147098093Y-129976190D01*
X147026665Y-130000000D01*
X146859998Y-130142857D02*
X146764760Y-130476190D01*
X146669522Y-130238095D01*
X146574284Y-130476190D01*
X146479046Y-130142857D01*
X146288569Y-130476190D02*
X146288569Y-130142857D01*
X146288569Y-129976190D02*
X146312379Y-130000000D01*
X146288569Y-130023810D01*
X146264760Y-130000000D01*
X146288569Y-129976190D01*
X146288569Y-130023810D01*
X146121903Y-130142857D02*
X145931427Y-130142857D01*
X146050474Y-129976190D02*
X146050474Y-130404762D01*
X146026665Y-130452381D01*
X145979046Y-130476190D01*
X145931427Y-130476190D01*
X145550475Y-130452381D02*
X145598094Y-130476190D01*
X145693332Y-130476190D01*
X145740951Y-130452381D01*
X145764760Y-130428571D01*
X145788570Y-130380952D01*
X145788570Y-130238095D01*
X145764760Y-130190476D01*
X145740951Y-130166667D01*
X145693332Y-130142857D01*
X145598094Y-130142857D01*
X145550475Y-130166667D01*
X145336189Y-130476190D02*
X145336189Y-129976190D01*
X145121904Y-130476190D02*
X145121904Y-130214286D01*
X145145713Y-130166667D01*
X145193332Y-130142857D01*
X145264761Y-130142857D01*
X145312380Y-130166667D01*
X145336189Y-130190476D01*
X144502856Y-130214286D02*
X144336190Y-130214286D01*
X144264761Y-130476190D02*
X144502856Y-130476190D01*
X144502856Y-129976190D01*
X144264761Y-129976190D01*
X143788571Y-130000000D02*
X143836190Y-129976190D01*
X143907618Y-129976190D01*
X143979047Y-130000000D01*
X144026666Y-130047619D01*
X144050475Y-130095238D01*
X144074285Y-130190476D01*
X144074285Y-130261905D01*
X144050475Y-130357143D01*
X144026666Y-130404762D01*
X143979047Y-130452381D01*
X143907618Y-130476190D01*
X143859999Y-130476190D01*
X143788571Y-130452381D01*
X143764761Y-130428571D01*
X143764761Y-130261905D01*
X143859999Y-130261905D01*
X143288571Y-130476190D02*
X143574285Y-130476190D01*
X143431428Y-130476190D02*
X143431428Y-129976190D01*
X143479047Y-130047619D01*
X143526666Y-130095238D01*
X143574285Y-130119048D01*
X143098095Y-130023810D02*
X143074285Y-130000000D01*
X143026666Y-129976190D01*
X142907619Y-129976190D01*
X142860000Y-130000000D01*
X142836190Y-130023810D01*
X142812381Y-130071429D01*
X142812381Y-130119048D01*
X142836190Y-130190476D01*
X143121904Y-130476190D01*
X142812381Y-130476190D01*
X142526667Y-130190476D02*
X142574286Y-130166667D01*
X142598095Y-130142857D01*
X142621905Y-130095238D01*
X142621905Y-130071429D01*
X142598095Y-130023810D01*
X142574286Y-130000000D01*
X142526667Y-129976190D01*
X142431429Y-129976190D01*
X142383810Y-130000000D01*
X142360000Y-130023810D01*
X142336191Y-130071429D01*
X142336191Y-130095238D01*
X142360000Y-130142857D01*
X142383810Y-130166667D01*
X142431429Y-130190476D01*
X142526667Y-130190476D01*
X142574286Y-130214286D01*
X142598095Y-130238095D01*
X142621905Y-130285714D01*
X142621905Y-130380952D01*
X142598095Y-130428571D01*
X142574286Y-130452381D01*
X142526667Y-130476190D01*
X142431429Y-130476190D01*
X142383810Y-130452381D01*
X142360000Y-130428571D01*
X142336191Y-130380952D01*
X142336191Y-130285714D01*
X142360000Y-130238095D01*
X142383810Y-130214286D01*
X142431429Y-130190476D01*
M02*
