G04 #@! TF.FileFunction,Profile,NP*
%FSLAX46Y46*%
G04 Gerber Fmt 4.6, Leading zero omitted, Abs format (unit mm)*
G04 Created by KiCad (PCBNEW 4.0.7) date 09/18/18 19:10:44*
%MOMM*%
%LPD*%
G01*
G04 APERTURE LIST*
%ADD10C,0.100000*%
G04 APERTURE END LIST*
D10*
X153412520Y-85494479D02*
X152364483Y-85745667D01*
X149390855Y-87621742D02*
X148256994Y-88856422D01*
X142692247Y-91399127D02*
X140374122Y-91385663D01*
X154435710Y-88977421D02*
X154435710Y-86931457D01*
X144807258Y-91618313D02*
X142692247Y-91399127D01*
X148256994Y-88856422D02*
X147340590Y-90406417D01*
X154180868Y-85890225D02*
X153412520Y-85494479D01*
X138116777Y-91595303D02*
X136056832Y-91994306D01*
X147340590Y-90406417D02*
X146714633Y-91994311D01*
X146714633Y-91994311D02*
X144807258Y-91618313D01*
X152364483Y-85745667D02*
X151122500Y-86409261D01*
X153995010Y-93524039D02*
X154345737Y-91514339D01*
X153303210Y-95062587D02*
X153995010Y-93524039D01*
X154345737Y-91514339D02*
X154435710Y-88977421D01*
X154435710Y-86931457D02*
X154180868Y-85890225D01*
X140374122Y-91385663D02*
X138116777Y-91595303D01*
X153244363Y-98966721D02*
X153303210Y-95062587D01*
X151122500Y-86409261D02*
X149390855Y-87621742D01*
X153223302Y-101569268D02*
X153244363Y-98966721D01*
X121640126Y-108135061D02*
X119447604Y-108299187D01*
X129872228Y-132957050D02*
X135508649Y-132763173D01*
X107713667Y-130781587D02*
X108222755Y-131940532D01*
X108382975Y-116774885D02*
X107773065Y-119221620D01*
X115618708Y-109371151D02*
X113276627Y-110725379D01*
X125874080Y-104205661D02*
X124563730Y-105536212D01*
X136056832Y-91994306D02*
X135683324Y-90980587D01*
X128240212Y-88979223D02*
X128388367Y-91160212D01*
X108222755Y-131940532D02*
X108480011Y-132795455D01*
X107713667Y-122443642D02*
X107713667Y-130781587D01*
X129509801Y-98445187D02*
X129548169Y-101569282D01*
X131466303Y-86308623D02*
X130198359Y-85635687D01*
X129358953Y-85494479D02*
X128685637Y-85804044D01*
X151459412Y-106413273D02*
X152312960Y-105154708D01*
X110004567Y-114106577D02*
X108382975Y-116774885D01*
X119447604Y-108299187D02*
X117609347Y-108659940D01*
X128685637Y-85804044D02*
X128203999Y-87213509D01*
X143428753Y-112260754D02*
X145334943Y-111791596D01*
X124563730Y-105536212D02*
X122608530Y-108074626D01*
X107773065Y-119221620D02*
X107713667Y-122443642D01*
X152956875Y-103552452D02*
X153223302Y-101569268D01*
X117609347Y-108659940D02*
X115618708Y-109371151D01*
X152312960Y-105154708D02*
X152956875Y-103552452D01*
X149238911Y-108659940D02*
X151459412Y-106413273D01*
X127167264Y-102676362D02*
X125874080Y-104205661D01*
X128203999Y-87213509D02*
X128240212Y-88979223D01*
X141544160Y-112260754D02*
X143428753Y-112260754D01*
X141544160Y-112907513D02*
X141544160Y-112260754D01*
X134304176Y-88582490D02*
X132812030Y-87163150D01*
X153035227Y-123425301D02*
X151455877Y-122587889D01*
X132812030Y-87163150D02*
X131466303Y-86308623D01*
X143839383Y-121252293D02*
X142659018Y-119819034D01*
X129548169Y-101569282D02*
X127167264Y-102676362D01*
X135683324Y-90980587D02*
X134974633Y-89550064D01*
X146815176Y-110950485D02*
X149238911Y-108659940D01*
X108480011Y-132795455D02*
X129872228Y-132957050D01*
X113276627Y-110725379D02*
X110004567Y-114106577D01*
X145334943Y-111791596D02*
X146815176Y-110950485D01*
X122608530Y-108074626D02*
X121640126Y-108135061D01*
X128388367Y-91160212D02*
X128760000Y-93460000D01*
X141225593Y-118696991D02*
X141544160Y-112907513D01*
X142659018Y-119819034D02*
X141225593Y-118696991D01*
X135508649Y-132763173D02*
X154435710Y-132532500D01*
X144482374Y-122443642D02*
X143839383Y-121252293D01*
X151455877Y-122587889D02*
X144482374Y-122443642D01*
X154021633Y-124700804D02*
X153035227Y-123425301D01*
X154435710Y-126479059D02*
X154021633Y-124700804D01*
X130198359Y-85635687D02*
X129358953Y-85494479D01*
X129468258Y-95062601D02*
X129509801Y-98445187D01*
X154435710Y-132532500D02*
X154435710Y-126479059D01*
X129872228Y-132957050D02*
X129872228Y-132957050D01*
X134974633Y-89550064D02*
X134304176Y-88582490D01*
X128760000Y-93460000D02*
X129468258Y-95062601D01*
M02*
