G04 #@! TF.FileFunction,Soldermask,Top*
%FSLAX46Y46*%
G04 Gerber Fmt 4.6, Leading zero omitted, Abs format (unit mm)*
G04 Created by KiCad (PCBNEW 4.0.7) date 09/18/18 19:10:44*
%MOMM*%
%LPD*%
G01*
G04 APERTURE LIST*
%ADD10C,0.100000*%
%ADD11C,0.010000*%
%ADD12C,2.686000*%
%ADD13R,2.200000X2.200000*%
%ADD14C,2.200000*%
%ADD15C,2.000000*%
%ADD16O,2.000000X2.000000*%
%ADD17R,1.797000X1.797000*%
%ADD18C,1.797000*%
G04 APERTURE END LIST*
D10*
D11*
G36*
X147402750Y-108986513D02*
X147862025Y-109033593D01*
X148358395Y-109103004D01*
X148874800Y-109192434D01*
X149394182Y-109299567D01*
X149899479Y-109422091D01*
X150373634Y-109557690D01*
X150702156Y-109667883D01*
X151089837Y-109820752D01*
X151502910Y-110005461D01*
X151923051Y-110211587D01*
X152331938Y-110428709D01*
X152711246Y-110646404D01*
X153042654Y-110854252D01*
X153307838Y-111041829D01*
X153488474Y-111198714D01*
X153558688Y-111292630D01*
X153590002Y-111436719D01*
X153529269Y-111585912D01*
X153519793Y-111600648D01*
X153397415Y-111721038D01*
X153237163Y-111751372D01*
X153025530Y-111689623D01*
X152749010Y-111533764D01*
X152655000Y-111470841D01*
X152097996Y-111126410D01*
X151448097Y-110788944D01*
X150739213Y-110472485D01*
X150005251Y-110191070D01*
X149280119Y-109958740D01*
X148597726Y-109789534D01*
X148591000Y-109788161D01*
X148269985Y-109733550D01*
X147878340Y-109682872D01*
X147472405Y-109642774D01*
X147199745Y-109624021D01*
X146853259Y-109602730D01*
X146610945Y-109578754D01*
X146449983Y-109548104D01*
X146347553Y-109506792D01*
X146294870Y-109465870D01*
X146190223Y-109305736D01*
X146210895Y-109153727D01*
X146277785Y-109067785D01*
X146418087Y-109002400D01*
X146663722Y-108968603D01*
X146997629Y-108964078D01*
X147402750Y-108986513D01*
X147402750Y-108986513D01*
G37*
X147402750Y-108986513D02*
X147862025Y-109033593D01*
X148358395Y-109103004D01*
X148874800Y-109192434D01*
X149394182Y-109299567D01*
X149899479Y-109422091D01*
X150373634Y-109557690D01*
X150702156Y-109667883D01*
X151089837Y-109820752D01*
X151502910Y-110005461D01*
X151923051Y-110211587D01*
X152331938Y-110428709D01*
X152711246Y-110646404D01*
X153042654Y-110854252D01*
X153307838Y-111041829D01*
X153488474Y-111198714D01*
X153558688Y-111292630D01*
X153590002Y-111436719D01*
X153529269Y-111585912D01*
X153519793Y-111600648D01*
X153397415Y-111721038D01*
X153237163Y-111751372D01*
X153025530Y-111689623D01*
X152749010Y-111533764D01*
X152655000Y-111470841D01*
X152097996Y-111126410D01*
X151448097Y-110788944D01*
X150739213Y-110472485D01*
X150005251Y-110191070D01*
X149280119Y-109958740D01*
X148597726Y-109789534D01*
X148591000Y-109788161D01*
X148269985Y-109733550D01*
X147878340Y-109682872D01*
X147472405Y-109642774D01*
X147199745Y-109624021D01*
X146853259Y-109602730D01*
X146610945Y-109578754D01*
X146449983Y-109548104D01*
X146347553Y-109506792D01*
X146294870Y-109465870D01*
X146190223Y-109305736D01*
X146210895Y-109153727D01*
X146277785Y-109067785D01*
X146418087Y-109002400D01*
X146663722Y-108968603D01*
X146997629Y-108964078D01*
X147402750Y-108986513D01*
G36*
X137413683Y-108979901D02*
X137657425Y-108992913D01*
X137804600Y-109013983D01*
X137885608Y-109054043D01*
X137930851Y-109124024D01*
X137949140Y-109172452D01*
X137975183Y-109329755D01*
X137909301Y-109455881D01*
X137901290Y-109464905D01*
X137835327Y-109517654D01*
X137733190Y-109555685D01*
X137571603Y-109583093D01*
X137327294Y-109603976D01*
X137016583Y-109620617D01*
X135985373Y-109723682D01*
X134939081Y-109933025D01*
X133905082Y-110239855D01*
X132910753Y-110635379D01*
X131983470Y-111110803D01*
X131555161Y-111374659D01*
X131244689Y-111563007D01*
X131011055Y-111666918D01*
X130839774Y-111690211D01*
X130716359Y-111636703D01*
X130684684Y-111604074D01*
X130624829Y-111469028D01*
X130666057Y-111319749D01*
X130814048Y-111147820D01*
X131074486Y-110944823D01*
X131176072Y-110876161D01*
X131946716Y-110417766D01*
X132782816Y-110009790D01*
X133661006Y-109659337D01*
X134557919Y-109373509D01*
X135450189Y-109159410D01*
X136314449Y-109024144D01*
X137127333Y-108974814D01*
X137413683Y-108979901D01*
X137413683Y-108979901D01*
G37*
X137413683Y-108979901D02*
X137657425Y-108992913D01*
X137804600Y-109013983D01*
X137885608Y-109054043D01*
X137930851Y-109124024D01*
X137949140Y-109172452D01*
X137975183Y-109329755D01*
X137909301Y-109455881D01*
X137901290Y-109464905D01*
X137835327Y-109517654D01*
X137733190Y-109555685D01*
X137571603Y-109583093D01*
X137327294Y-109603976D01*
X137016583Y-109620617D01*
X135985373Y-109723682D01*
X134939081Y-109933025D01*
X133905082Y-110239855D01*
X132910753Y-110635379D01*
X131983470Y-111110803D01*
X131555161Y-111374659D01*
X131244689Y-111563007D01*
X131011055Y-111666918D01*
X130839774Y-111690211D01*
X130716359Y-111636703D01*
X130684684Y-111604074D01*
X130624829Y-111469028D01*
X130666057Y-111319749D01*
X130814048Y-111147820D01*
X131074486Y-110944823D01*
X131176072Y-110876161D01*
X131946716Y-110417766D01*
X132782816Y-110009790D01*
X133661006Y-109659337D01*
X134557919Y-109373509D01*
X135450189Y-109159410D01*
X136314449Y-109024144D01*
X137127333Y-108974814D01*
X137413683Y-108979901D01*
G36*
X136419205Y-107621947D02*
X136470764Y-107626267D01*
X136874065Y-107662706D01*
X137168873Y-107694564D01*
X137373349Y-107726649D01*
X137505652Y-107763767D01*
X137583943Y-107810725D01*
X137626380Y-107872328D01*
X137647295Y-107937666D01*
X137662927Y-108115897D01*
X137593757Y-108227358D01*
X137427387Y-108281480D01*
X137185363Y-108288993D01*
X136376435Y-108267394D01*
X135680618Y-108259913D01*
X135084770Y-108266914D01*
X134575748Y-108288758D01*
X134140411Y-108325810D01*
X133765616Y-108378432D01*
X133732000Y-108384377D01*
X132712595Y-108614705D01*
X131716089Y-108930338D01*
X130768450Y-109321026D01*
X129895646Y-109776519D01*
X129382802Y-110101084D01*
X129144548Y-110260170D01*
X128941762Y-110388073D01*
X128798870Y-110469844D01*
X128744064Y-110492000D01*
X128641804Y-110457484D01*
X128563439Y-110409493D01*
X128464692Y-110272986D01*
X128478864Y-110101349D01*
X128601339Y-109907571D01*
X128808906Y-109718487D01*
X129216570Y-109441766D01*
X129719417Y-109149814D01*
X130289058Y-108856706D01*
X130897101Y-108576513D01*
X131515156Y-108323308D01*
X131922250Y-108175240D01*
X132756043Y-107934654D01*
X133663446Y-107754106D01*
X134603647Y-107638522D01*
X135535837Y-107592827D01*
X136419205Y-107621947D01*
X136419205Y-107621947D01*
G37*
X136419205Y-107621947D02*
X136470764Y-107626267D01*
X136874065Y-107662706D01*
X137168873Y-107694564D01*
X137373349Y-107726649D01*
X137505652Y-107763767D01*
X137583943Y-107810725D01*
X137626380Y-107872328D01*
X137647295Y-107937666D01*
X137662927Y-108115897D01*
X137593757Y-108227358D01*
X137427387Y-108281480D01*
X137185363Y-108288993D01*
X136376435Y-108267394D01*
X135680618Y-108259913D01*
X135084770Y-108266914D01*
X134575748Y-108288758D01*
X134140411Y-108325810D01*
X133765616Y-108378432D01*
X133732000Y-108384377D01*
X132712595Y-108614705D01*
X131716089Y-108930338D01*
X130768450Y-109321026D01*
X129895646Y-109776519D01*
X129382802Y-110101084D01*
X129144548Y-110260170D01*
X128941762Y-110388073D01*
X128798870Y-110469844D01*
X128744064Y-110492000D01*
X128641804Y-110457484D01*
X128563439Y-110409493D01*
X128464692Y-110272986D01*
X128478864Y-110101349D01*
X128601339Y-109907571D01*
X128808906Y-109718487D01*
X129216570Y-109441766D01*
X129719417Y-109149814D01*
X130289058Y-108856706D01*
X130897101Y-108576513D01*
X131515156Y-108323308D01*
X131922250Y-108175240D01*
X132756043Y-107934654D01*
X133663446Y-107754106D01*
X134603647Y-107638522D01*
X135535837Y-107592827D01*
X136419205Y-107621947D01*
G36*
X149898491Y-107660572D02*
X151024067Y-107835005D01*
X152124297Y-108108852D01*
X153176507Y-108477524D01*
X154158026Y-108936431D01*
X154179000Y-108947693D01*
X154462366Y-109106509D01*
X154762681Y-109285184D01*
X155057198Y-109468975D01*
X155323170Y-109643138D01*
X155537853Y-109792931D01*
X155678499Y-109903612D01*
X155717902Y-109945134D01*
X155764151Y-110114002D01*
X155728159Y-110299356D01*
X155666714Y-110392214D01*
X155550001Y-110469663D01*
X155407183Y-110478484D01*
X155218972Y-110413664D01*
X154966079Y-110270186D01*
X154814000Y-110170522D01*
X154102551Y-109737085D01*
X153307779Y-109333465D01*
X152472916Y-108978862D01*
X151641195Y-108692472D01*
X151226250Y-108577373D01*
X150421653Y-108397286D01*
X149677980Y-108282933D01*
X148949950Y-108230412D01*
X148192281Y-108235816D01*
X147653427Y-108269264D01*
X147243195Y-108299452D01*
X146942466Y-108312365D01*
X146734516Y-108304705D01*
X146602619Y-108273174D01*
X146530050Y-108214475D01*
X146500085Y-108125309D01*
X146495500Y-108040938D01*
X146517219Y-107925713D01*
X146592456Y-107835811D01*
X146736330Y-107765883D01*
X146963959Y-107710581D01*
X147290461Y-107664558D01*
X147661985Y-107628310D01*
X148770240Y-107590144D01*
X149898491Y-107660572D01*
X149898491Y-107660572D01*
G37*
X149898491Y-107660572D02*
X151024067Y-107835005D01*
X152124297Y-108108852D01*
X153176507Y-108477524D01*
X154158026Y-108936431D01*
X154179000Y-108947693D01*
X154462366Y-109106509D01*
X154762681Y-109285184D01*
X155057198Y-109468975D01*
X155323170Y-109643138D01*
X155537853Y-109792931D01*
X155678499Y-109903612D01*
X155717902Y-109945134D01*
X155764151Y-110114002D01*
X155728159Y-110299356D01*
X155666714Y-110392214D01*
X155550001Y-110469663D01*
X155407183Y-110478484D01*
X155218972Y-110413664D01*
X154966079Y-110270186D01*
X154814000Y-110170522D01*
X154102551Y-109737085D01*
X153307779Y-109333465D01*
X152472916Y-108978862D01*
X151641195Y-108692472D01*
X151226250Y-108577373D01*
X150421653Y-108397286D01*
X149677980Y-108282933D01*
X148949950Y-108230412D01*
X148192281Y-108235816D01*
X147653427Y-108269264D01*
X147243195Y-108299452D01*
X146942466Y-108312365D01*
X146734516Y-108304705D01*
X146602619Y-108273174D01*
X146530050Y-108214475D01*
X146500085Y-108125309D01*
X146495500Y-108040938D01*
X146517219Y-107925713D01*
X146592456Y-107835811D01*
X146736330Y-107765883D01*
X146963959Y-107710581D01*
X147290461Y-107664558D01*
X147661985Y-107628310D01*
X148770240Y-107590144D01*
X149898491Y-107660572D01*
G36*
X134201879Y-105897861D02*
X135270926Y-106073553D01*
X136061531Y-106270217D01*
X136304290Y-106368566D01*
X136430754Y-106495586D01*
X136450587Y-106663709D01*
X136430796Y-106745352D01*
X136349818Y-106859426D01*
X136192675Y-106907585D01*
X135947731Y-106890872D01*
X135627833Y-106817163D01*
X135127247Y-106688994D01*
X134660626Y-106594539D01*
X134193266Y-106529656D01*
X133690464Y-106490203D01*
X133117515Y-106472038D01*
X132716000Y-106469646D01*
X131970834Y-106483990D01*
X131317486Y-106528258D01*
X130723281Y-106607252D01*
X130155546Y-106725775D01*
X129581607Y-106888628D01*
X129352625Y-106963972D01*
X129080052Y-107055221D01*
X128852078Y-107128826D01*
X128695313Y-107176367D01*
X128638250Y-107190000D01*
X128561354Y-107149462D01*
X128461500Y-107063000D01*
X128348446Y-106902705D01*
X128354297Y-106758770D01*
X128482007Y-106622052D01*
X128633227Y-106531978D01*
X128791699Y-106468824D01*
X129047055Y-106387418D01*
X129371734Y-106294854D01*
X129738175Y-106198225D01*
X130118816Y-106104626D01*
X130486097Y-106021151D01*
X130812455Y-105954894D01*
X130999573Y-105922894D01*
X132031693Y-105820163D01*
X133110632Y-105812608D01*
X134201879Y-105897861D01*
X134201879Y-105897861D01*
G37*
X134201879Y-105897861D02*
X135270926Y-106073553D01*
X136061531Y-106270217D01*
X136304290Y-106368566D01*
X136430754Y-106495586D01*
X136450587Y-106663709D01*
X136430796Y-106745352D01*
X136349818Y-106859426D01*
X136192675Y-106907585D01*
X135947731Y-106890872D01*
X135627833Y-106817163D01*
X135127247Y-106688994D01*
X134660626Y-106594539D01*
X134193266Y-106529656D01*
X133690464Y-106490203D01*
X133117515Y-106472038D01*
X132716000Y-106469646D01*
X131970834Y-106483990D01*
X131317486Y-106528258D01*
X130723281Y-106607252D01*
X130155546Y-106725775D01*
X129581607Y-106888628D01*
X129352625Y-106963972D01*
X129080052Y-107055221D01*
X128852078Y-107128826D01*
X128695313Y-107176367D01*
X128638250Y-107190000D01*
X128561354Y-107149462D01*
X128461500Y-107063000D01*
X128348446Y-106902705D01*
X128354297Y-106758770D01*
X128482007Y-106622052D01*
X128633227Y-106531978D01*
X128791699Y-106468824D01*
X129047055Y-106387418D01*
X129371734Y-106294854D01*
X129738175Y-106198225D01*
X130118816Y-106104626D01*
X130486097Y-106021151D01*
X130812455Y-105954894D01*
X130999573Y-105922894D01*
X132031693Y-105820163D01*
X133110632Y-105812608D01*
X134201879Y-105897861D01*
G36*
X151575500Y-105830578D02*
X152261001Y-105841487D01*
X152853161Y-105872709D01*
X153384682Y-105928989D01*
X153888266Y-106015072D01*
X154396613Y-106135704D01*
X154942426Y-106295628D01*
X155077512Y-106338730D01*
X155393920Y-106445617D01*
X155607462Y-106534071D01*
X155737889Y-106618738D01*
X155804953Y-106714266D01*
X155828404Y-106835300D01*
X155830000Y-106896743D01*
X155806574Y-107049070D01*
X155727735Y-107141291D01*
X155580641Y-107174577D01*
X155352450Y-107150101D01*
X155030319Y-107069032D01*
X154782250Y-106992306D01*
X154396338Y-106879702D01*
X153941639Y-106770444D01*
X153401698Y-106661069D01*
X152760063Y-106548113D01*
X152381377Y-106486908D01*
X151902673Y-106440951D01*
X151334422Y-106434999D01*
X150706735Y-106466493D01*
X150049720Y-106532875D01*
X149393487Y-106631586D01*
X148768146Y-106760070D01*
X148563407Y-106811267D01*
X148227706Y-106887002D01*
X147990946Y-106907280D01*
X147836883Y-106870139D01*
X147749276Y-106773617D01*
X147727190Y-106710224D01*
X147718020Y-106570331D01*
X147777610Y-106455061D01*
X147919735Y-106355354D01*
X148158169Y-106262148D01*
X148506686Y-106166382D01*
X148581287Y-106148384D01*
X149042884Y-106042380D01*
X149438546Y-105962206D01*
X149800118Y-105904482D01*
X150159447Y-105865828D01*
X150548381Y-105842863D01*
X150998767Y-105832208D01*
X151542450Y-105830481D01*
X151575500Y-105830578D01*
X151575500Y-105830578D01*
G37*
X151575500Y-105830578D02*
X152261001Y-105841487D01*
X152853161Y-105872709D01*
X153384682Y-105928989D01*
X153888266Y-106015072D01*
X154396613Y-106135704D01*
X154942426Y-106295628D01*
X155077512Y-106338730D01*
X155393920Y-106445617D01*
X155607462Y-106534071D01*
X155737889Y-106618738D01*
X155804953Y-106714266D01*
X155828404Y-106835300D01*
X155830000Y-106896743D01*
X155806574Y-107049070D01*
X155727735Y-107141291D01*
X155580641Y-107174577D01*
X155352450Y-107150101D01*
X155030319Y-107069032D01*
X154782250Y-106992306D01*
X154396338Y-106879702D01*
X153941639Y-106770444D01*
X153401698Y-106661069D01*
X152760063Y-106548113D01*
X152381377Y-106486908D01*
X151902673Y-106440951D01*
X151334422Y-106434999D01*
X150706735Y-106466493D01*
X150049720Y-106532875D01*
X149393487Y-106631586D01*
X148768146Y-106760070D01*
X148563407Y-106811267D01*
X148227706Y-106887002D01*
X147990946Y-106907280D01*
X147836883Y-106870139D01*
X147749276Y-106773617D01*
X147727190Y-106710224D01*
X147718020Y-106570331D01*
X147777610Y-106455061D01*
X147919735Y-106355354D01*
X148158169Y-106262148D01*
X148506686Y-106166382D01*
X148581287Y-106148384D01*
X149042884Y-106042380D01*
X149438546Y-105962206D01*
X149800118Y-105904482D01*
X150159447Y-105865828D01*
X150548381Y-105842863D01*
X150998767Y-105832208D01*
X151542450Y-105830481D01*
X151575500Y-105830578D01*
G36*
X147450789Y-122450169D02*
X148093967Y-122455979D01*
X148703111Y-122463077D01*
X149265570Y-122471205D01*
X149768688Y-122480105D01*
X150199814Y-122489520D01*
X150546293Y-122499193D01*
X150795472Y-122508867D01*
X150934697Y-122518284D01*
X150954999Y-122521445D01*
X151095239Y-122566349D01*
X151314202Y-122648167D01*
X151574389Y-122752612D01*
X151699684Y-122805210D01*
X152130018Y-123026169D01*
X152549481Y-123309274D01*
X152920964Y-123626161D01*
X153207353Y-123948469D01*
X153221834Y-123968502D01*
X153364239Y-124168492D01*
X149812494Y-124124752D01*
X146260750Y-124081013D01*
X146768750Y-124338986D01*
X147024540Y-124475622D01*
X147259096Y-124612665D01*
X147432094Y-124726206D01*
X147467250Y-124753164D01*
X147657750Y-124909369D01*
X143196875Y-124909684D01*
X138736000Y-124910000D01*
X138736000Y-123894000D01*
X141688750Y-123894000D01*
X142287478Y-123893561D01*
X142845518Y-123892305D01*
X143350401Y-123890319D01*
X143789660Y-123887695D01*
X144150830Y-123884519D01*
X144421441Y-123880882D01*
X144589028Y-123876872D01*
X144641500Y-123872916D01*
X144621430Y-123808472D01*
X144566782Y-123648575D01*
X144485897Y-123417299D01*
X144387117Y-123138719D01*
X144386914Y-123138150D01*
X144132329Y-122424466D01*
X147450789Y-122450169D01*
X147450789Y-122450169D01*
G37*
X147450789Y-122450169D02*
X148093967Y-122455979D01*
X148703111Y-122463077D01*
X149265570Y-122471205D01*
X149768688Y-122480105D01*
X150199814Y-122489520D01*
X150546293Y-122499193D01*
X150795472Y-122508867D01*
X150934697Y-122518284D01*
X150954999Y-122521445D01*
X151095239Y-122566349D01*
X151314202Y-122648167D01*
X151574389Y-122752612D01*
X151699684Y-122805210D01*
X152130018Y-123026169D01*
X152549481Y-123309274D01*
X152920964Y-123626161D01*
X153207353Y-123948469D01*
X153221834Y-123968502D01*
X153364239Y-124168492D01*
X149812494Y-124124752D01*
X146260750Y-124081013D01*
X146768750Y-124338986D01*
X147024540Y-124475622D01*
X147259096Y-124612665D01*
X147432094Y-124726206D01*
X147467250Y-124753164D01*
X147657750Y-124909369D01*
X143196875Y-124909684D01*
X138736000Y-124910000D01*
X138736000Y-123894000D01*
X141688750Y-123894000D01*
X142287478Y-123893561D01*
X142845518Y-123892305D01*
X143350401Y-123890319D01*
X143789660Y-123887695D01*
X144150830Y-123884519D01*
X144421441Y-123880882D01*
X144589028Y-123876872D01*
X144641500Y-123872916D01*
X144621430Y-123808472D01*
X144566782Y-123648575D01*
X144485897Y-123417299D01*
X144387117Y-123138719D01*
X144386914Y-123138150D01*
X144132329Y-122424466D01*
X147450789Y-122450169D01*
D12*
X138500000Y-121080000D03*
X117672000Y-121080000D03*
X138500000Y-118032000D03*
X117672000Y-118032000D03*
D13*
X134820000Y-101800000D03*
D14*
X134820000Y-104340000D03*
D13*
X147990000Y-102040000D03*
D14*
X147990000Y-104580000D03*
D15*
X110270000Y-119910000D03*
D16*
X110270000Y-130070000D03*
D17*
X144820000Y-129250000D03*
D18*
X147360000Y-129250000D03*
X149900000Y-129250000D03*
M02*
