G04 #@! TF.FileFunction,Copper,L1,Top,Signal*
%FSLAX46Y46*%
G04 Gerber Fmt 4.6, Leading zero omitted, Abs format (unit mm)*
G04 Created by KiCad (PCBNEW 4.0.7) date 09/18/18 19:10:44*
%MOMM*%
%LPD*%
G01*
G04 APERTURE LIST*
%ADD10C,0.100000*%
%ADD11C,0.010000*%
%ADD12C,2.286000*%
%ADD13R,1.800000X1.800000*%
%ADD14C,1.800000*%
%ADD15C,1.600000*%
%ADD16O,1.600000X1.600000*%
%ADD17R,1.397000X1.397000*%
%ADD18C,1.397000*%
G04 APERTURE END LIST*
D10*
D11*
G36*
X147432750Y-108956513D02*
X147892025Y-109003593D01*
X148388395Y-109073004D01*
X148904800Y-109162434D01*
X149424182Y-109269567D01*
X149929479Y-109392091D01*
X150403634Y-109527690D01*
X150732156Y-109637883D01*
X151119837Y-109790752D01*
X151532910Y-109975461D01*
X151953051Y-110181587D01*
X152361938Y-110398709D01*
X152741246Y-110616404D01*
X153072654Y-110824252D01*
X153337838Y-111011829D01*
X153518474Y-111168714D01*
X153588688Y-111262630D01*
X153620002Y-111406719D01*
X153559269Y-111555912D01*
X153549793Y-111570648D01*
X153427415Y-111691038D01*
X153267163Y-111721372D01*
X153055530Y-111659623D01*
X152779010Y-111503764D01*
X152685000Y-111440841D01*
X152127996Y-111096410D01*
X151478097Y-110758944D01*
X150769213Y-110442485D01*
X150035251Y-110161070D01*
X149310119Y-109928740D01*
X148627726Y-109759534D01*
X148621000Y-109758161D01*
X148299985Y-109703550D01*
X147908340Y-109652872D01*
X147502405Y-109612774D01*
X147229745Y-109594021D01*
X146883259Y-109572730D01*
X146640945Y-109548754D01*
X146479983Y-109518104D01*
X146377553Y-109476792D01*
X146324870Y-109435870D01*
X146220223Y-109275736D01*
X146240895Y-109123727D01*
X146307785Y-109037785D01*
X146448087Y-108972400D01*
X146693722Y-108938603D01*
X147027629Y-108934078D01*
X147432750Y-108956513D01*
X147432750Y-108956513D01*
G37*
X147432750Y-108956513D02*
X147892025Y-109003593D01*
X148388395Y-109073004D01*
X148904800Y-109162434D01*
X149424182Y-109269567D01*
X149929479Y-109392091D01*
X150403634Y-109527690D01*
X150732156Y-109637883D01*
X151119837Y-109790752D01*
X151532910Y-109975461D01*
X151953051Y-110181587D01*
X152361938Y-110398709D01*
X152741246Y-110616404D01*
X153072654Y-110824252D01*
X153337838Y-111011829D01*
X153518474Y-111168714D01*
X153588688Y-111262630D01*
X153620002Y-111406719D01*
X153559269Y-111555912D01*
X153549793Y-111570648D01*
X153427415Y-111691038D01*
X153267163Y-111721372D01*
X153055530Y-111659623D01*
X152779010Y-111503764D01*
X152685000Y-111440841D01*
X152127996Y-111096410D01*
X151478097Y-110758944D01*
X150769213Y-110442485D01*
X150035251Y-110161070D01*
X149310119Y-109928740D01*
X148627726Y-109759534D01*
X148621000Y-109758161D01*
X148299985Y-109703550D01*
X147908340Y-109652872D01*
X147502405Y-109612774D01*
X147229745Y-109594021D01*
X146883259Y-109572730D01*
X146640945Y-109548754D01*
X146479983Y-109518104D01*
X146377553Y-109476792D01*
X146324870Y-109435870D01*
X146220223Y-109275736D01*
X146240895Y-109123727D01*
X146307785Y-109037785D01*
X146448087Y-108972400D01*
X146693722Y-108938603D01*
X147027629Y-108934078D01*
X147432750Y-108956513D01*
G36*
X137443683Y-108949901D02*
X137687425Y-108962913D01*
X137834600Y-108983983D01*
X137915608Y-109024043D01*
X137960851Y-109094024D01*
X137979140Y-109142452D01*
X138005183Y-109299755D01*
X137939301Y-109425881D01*
X137931290Y-109434905D01*
X137865327Y-109487654D01*
X137763190Y-109525685D01*
X137601603Y-109553093D01*
X137357294Y-109573976D01*
X137046583Y-109590617D01*
X136015373Y-109693682D01*
X134969081Y-109903025D01*
X133935082Y-110209855D01*
X132940753Y-110605379D01*
X132013470Y-111080803D01*
X131585161Y-111344659D01*
X131274689Y-111533007D01*
X131041055Y-111636918D01*
X130869774Y-111660211D01*
X130746359Y-111606703D01*
X130714684Y-111574074D01*
X130654829Y-111439028D01*
X130696057Y-111289749D01*
X130844048Y-111117820D01*
X131104486Y-110914823D01*
X131206072Y-110846161D01*
X131976716Y-110387766D01*
X132812816Y-109979790D01*
X133691006Y-109629337D01*
X134587919Y-109343509D01*
X135480189Y-109129410D01*
X136344449Y-108994144D01*
X137157333Y-108944814D01*
X137443683Y-108949901D01*
X137443683Y-108949901D01*
G37*
X137443683Y-108949901D02*
X137687425Y-108962913D01*
X137834600Y-108983983D01*
X137915608Y-109024043D01*
X137960851Y-109094024D01*
X137979140Y-109142452D01*
X138005183Y-109299755D01*
X137939301Y-109425881D01*
X137931290Y-109434905D01*
X137865327Y-109487654D01*
X137763190Y-109525685D01*
X137601603Y-109553093D01*
X137357294Y-109573976D01*
X137046583Y-109590617D01*
X136015373Y-109693682D01*
X134969081Y-109903025D01*
X133935082Y-110209855D01*
X132940753Y-110605379D01*
X132013470Y-111080803D01*
X131585161Y-111344659D01*
X131274689Y-111533007D01*
X131041055Y-111636918D01*
X130869774Y-111660211D01*
X130746359Y-111606703D01*
X130714684Y-111574074D01*
X130654829Y-111439028D01*
X130696057Y-111289749D01*
X130844048Y-111117820D01*
X131104486Y-110914823D01*
X131206072Y-110846161D01*
X131976716Y-110387766D01*
X132812816Y-109979790D01*
X133691006Y-109629337D01*
X134587919Y-109343509D01*
X135480189Y-109129410D01*
X136344449Y-108994144D01*
X137157333Y-108944814D01*
X137443683Y-108949901D01*
G36*
X136449205Y-107591947D02*
X136500764Y-107596267D01*
X136904065Y-107632706D01*
X137198873Y-107664564D01*
X137403349Y-107696649D01*
X137535652Y-107733767D01*
X137613943Y-107780725D01*
X137656380Y-107842328D01*
X137677295Y-107907666D01*
X137692927Y-108085897D01*
X137623757Y-108197358D01*
X137457387Y-108251480D01*
X137215363Y-108258993D01*
X136406435Y-108237394D01*
X135710618Y-108229913D01*
X135114770Y-108236914D01*
X134605748Y-108258758D01*
X134170411Y-108295810D01*
X133795616Y-108348432D01*
X133762000Y-108354377D01*
X132742595Y-108584705D01*
X131746089Y-108900338D01*
X130798450Y-109291026D01*
X129925646Y-109746519D01*
X129412802Y-110071084D01*
X129174548Y-110230170D01*
X128971762Y-110358073D01*
X128828870Y-110439844D01*
X128774064Y-110462000D01*
X128671804Y-110427484D01*
X128593439Y-110379493D01*
X128494692Y-110242986D01*
X128508864Y-110071349D01*
X128631339Y-109877571D01*
X128838906Y-109688487D01*
X129246570Y-109411766D01*
X129749417Y-109119814D01*
X130319058Y-108826706D01*
X130927101Y-108546513D01*
X131545156Y-108293308D01*
X131952250Y-108145240D01*
X132786043Y-107904654D01*
X133693446Y-107724106D01*
X134633647Y-107608522D01*
X135565837Y-107562827D01*
X136449205Y-107591947D01*
X136449205Y-107591947D01*
G37*
X136449205Y-107591947D02*
X136500764Y-107596267D01*
X136904065Y-107632706D01*
X137198873Y-107664564D01*
X137403349Y-107696649D01*
X137535652Y-107733767D01*
X137613943Y-107780725D01*
X137656380Y-107842328D01*
X137677295Y-107907666D01*
X137692927Y-108085897D01*
X137623757Y-108197358D01*
X137457387Y-108251480D01*
X137215363Y-108258993D01*
X136406435Y-108237394D01*
X135710618Y-108229913D01*
X135114770Y-108236914D01*
X134605748Y-108258758D01*
X134170411Y-108295810D01*
X133795616Y-108348432D01*
X133762000Y-108354377D01*
X132742595Y-108584705D01*
X131746089Y-108900338D01*
X130798450Y-109291026D01*
X129925646Y-109746519D01*
X129412802Y-110071084D01*
X129174548Y-110230170D01*
X128971762Y-110358073D01*
X128828870Y-110439844D01*
X128774064Y-110462000D01*
X128671804Y-110427484D01*
X128593439Y-110379493D01*
X128494692Y-110242986D01*
X128508864Y-110071349D01*
X128631339Y-109877571D01*
X128838906Y-109688487D01*
X129246570Y-109411766D01*
X129749417Y-109119814D01*
X130319058Y-108826706D01*
X130927101Y-108546513D01*
X131545156Y-108293308D01*
X131952250Y-108145240D01*
X132786043Y-107904654D01*
X133693446Y-107724106D01*
X134633647Y-107608522D01*
X135565837Y-107562827D01*
X136449205Y-107591947D01*
G36*
X149928491Y-107630572D02*
X151054067Y-107805005D01*
X152154297Y-108078852D01*
X153206507Y-108447524D01*
X154188026Y-108906431D01*
X154209000Y-108917693D01*
X154492366Y-109076509D01*
X154792681Y-109255184D01*
X155087198Y-109438975D01*
X155353170Y-109613138D01*
X155567853Y-109762931D01*
X155708499Y-109873612D01*
X155747902Y-109915134D01*
X155794151Y-110084002D01*
X155758159Y-110269356D01*
X155696714Y-110362214D01*
X155580001Y-110439663D01*
X155437183Y-110448484D01*
X155248972Y-110383664D01*
X154996079Y-110240186D01*
X154844000Y-110140522D01*
X154132551Y-109707085D01*
X153337779Y-109303465D01*
X152502916Y-108948862D01*
X151671195Y-108662472D01*
X151256250Y-108547373D01*
X150451653Y-108367286D01*
X149707980Y-108252933D01*
X148979950Y-108200412D01*
X148222281Y-108205816D01*
X147683427Y-108239264D01*
X147273195Y-108269452D01*
X146972466Y-108282365D01*
X146764516Y-108274705D01*
X146632619Y-108243174D01*
X146560050Y-108184475D01*
X146530085Y-108095309D01*
X146525500Y-108010938D01*
X146547219Y-107895713D01*
X146622456Y-107805811D01*
X146766330Y-107735883D01*
X146993959Y-107680581D01*
X147320461Y-107634558D01*
X147691985Y-107598310D01*
X148800240Y-107560144D01*
X149928491Y-107630572D01*
X149928491Y-107630572D01*
G37*
X149928491Y-107630572D02*
X151054067Y-107805005D01*
X152154297Y-108078852D01*
X153206507Y-108447524D01*
X154188026Y-108906431D01*
X154209000Y-108917693D01*
X154492366Y-109076509D01*
X154792681Y-109255184D01*
X155087198Y-109438975D01*
X155353170Y-109613138D01*
X155567853Y-109762931D01*
X155708499Y-109873612D01*
X155747902Y-109915134D01*
X155794151Y-110084002D01*
X155758159Y-110269356D01*
X155696714Y-110362214D01*
X155580001Y-110439663D01*
X155437183Y-110448484D01*
X155248972Y-110383664D01*
X154996079Y-110240186D01*
X154844000Y-110140522D01*
X154132551Y-109707085D01*
X153337779Y-109303465D01*
X152502916Y-108948862D01*
X151671195Y-108662472D01*
X151256250Y-108547373D01*
X150451653Y-108367286D01*
X149707980Y-108252933D01*
X148979950Y-108200412D01*
X148222281Y-108205816D01*
X147683427Y-108239264D01*
X147273195Y-108269452D01*
X146972466Y-108282365D01*
X146764516Y-108274705D01*
X146632619Y-108243174D01*
X146560050Y-108184475D01*
X146530085Y-108095309D01*
X146525500Y-108010938D01*
X146547219Y-107895713D01*
X146622456Y-107805811D01*
X146766330Y-107735883D01*
X146993959Y-107680581D01*
X147320461Y-107634558D01*
X147691985Y-107598310D01*
X148800240Y-107560144D01*
X149928491Y-107630572D01*
G36*
X134231879Y-105867861D02*
X135300926Y-106043553D01*
X136091531Y-106240217D01*
X136334290Y-106338566D01*
X136460754Y-106465586D01*
X136480587Y-106633709D01*
X136460796Y-106715352D01*
X136379818Y-106829426D01*
X136222675Y-106877585D01*
X135977731Y-106860872D01*
X135657833Y-106787163D01*
X135157247Y-106658994D01*
X134690626Y-106564539D01*
X134223266Y-106499656D01*
X133720464Y-106460203D01*
X133147515Y-106442038D01*
X132746000Y-106439646D01*
X132000834Y-106453990D01*
X131347486Y-106498258D01*
X130753281Y-106577252D01*
X130185546Y-106695775D01*
X129611607Y-106858628D01*
X129382625Y-106933972D01*
X129110052Y-107025221D01*
X128882078Y-107098826D01*
X128725313Y-107146367D01*
X128668250Y-107160000D01*
X128591354Y-107119462D01*
X128491500Y-107033000D01*
X128378446Y-106872705D01*
X128384297Y-106728770D01*
X128512007Y-106592052D01*
X128663227Y-106501978D01*
X128821699Y-106438824D01*
X129077055Y-106357418D01*
X129401734Y-106264854D01*
X129768175Y-106168225D01*
X130148816Y-106074626D01*
X130516097Y-105991151D01*
X130842455Y-105924894D01*
X131029573Y-105892894D01*
X132061693Y-105790163D01*
X133140632Y-105782608D01*
X134231879Y-105867861D01*
X134231879Y-105867861D01*
G37*
X134231879Y-105867861D02*
X135300926Y-106043553D01*
X136091531Y-106240217D01*
X136334290Y-106338566D01*
X136460754Y-106465586D01*
X136480587Y-106633709D01*
X136460796Y-106715352D01*
X136379818Y-106829426D01*
X136222675Y-106877585D01*
X135977731Y-106860872D01*
X135657833Y-106787163D01*
X135157247Y-106658994D01*
X134690626Y-106564539D01*
X134223266Y-106499656D01*
X133720464Y-106460203D01*
X133147515Y-106442038D01*
X132746000Y-106439646D01*
X132000834Y-106453990D01*
X131347486Y-106498258D01*
X130753281Y-106577252D01*
X130185546Y-106695775D01*
X129611607Y-106858628D01*
X129382625Y-106933972D01*
X129110052Y-107025221D01*
X128882078Y-107098826D01*
X128725313Y-107146367D01*
X128668250Y-107160000D01*
X128591354Y-107119462D01*
X128491500Y-107033000D01*
X128378446Y-106872705D01*
X128384297Y-106728770D01*
X128512007Y-106592052D01*
X128663227Y-106501978D01*
X128821699Y-106438824D01*
X129077055Y-106357418D01*
X129401734Y-106264854D01*
X129768175Y-106168225D01*
X130148816Y-106074626D01*
X130516097Y-105991151D01*
X130842455Y-105924894D01*
X131029573Y-105892894D01*
X132061693Y-105790163D01*
X133140632Y-105782608D01*
X134231879Y-105867861D01*
G36*
X151605500Y-105800578D02*
X152291001Y-105811487D01*
X152883161Y-105842709D01*
X153414682Y-105898989D01*
X153918266Y-105985072D01*
X154426613Y-106105704D01*
X154972426Y-106265628D01*
X155107512Y-106308730D01*
X155423920Y-106415617D01*
X155637462Y-106504071D01*
X155767889Y-106588738D01*
X155834953Y-106684266D01*
X155858404Y-106805300D01*
X155860000Y-106866743D01*
X155836574Y-107019070D01*
X155757735Y-107111291D01*
X155610641Y-107144577D01*
X155382450Y-107120101D01*
X155060319Y-107039032D01*
X154812250Y-106962306D01*
X154426338Y-106849702D01*
X153971639Y-106740444D01*
X153431698Y-106631069D01*
X152790063Y-106518113D01*
X152411377Y-106456908D01*
X151932673Y-106410951D01*
X151364422Y-106404999D01*
X150736735Y-106436493D01*
X150079720Y-106502875D01*
X149423487Y-106601586D01*
X148798146Y-106730070D01*
X148593407Y-106781267D01*
X148257706Y-106857002D01*
X148020946Y-106877280D01*
X147866883Y-106840139D01*
X147779276Y-106743617D01*
X147757190Y-106680224D01*
X147748020Y-106540331D01*
X147807610Y-106425061D01*
X147949735Y-106325354D01*
X148188169Y-106232148D01*
X148536686Y-106136382D01*
X148611287Y-106118384D01*
X149072884Y-106012380D01*
X149468546Y-105932206D01*
X149830118Y-105874482D01*
X150189447Y-105835828D01*
X150578381Y-105812863D01*
X151028767Y-105802208D01*
X151572450Y-105800481D01*
X151605500Y-105800578D01*
X151605500Y-105800578D01*
G37*
X151605500Y-105800578D02*
X152291001Y-105811487D01*
X152883161Y-105842709D01*
X153414682Y-105898989D01*
X153918266Y-105985072D01*
X154426613Y-106105704D01*
X154972426Y-106265628D01*
X155107512Y-106308730D01*
X155423920Y-106415617D01*
X155637462Y-106504071D01*
X155767889Y-106588738D01*
X155834953Y-106684266D01*
X155858404Y-106805300D01*
X155860000Y-106866743D01*
X155836574Y-107019070D01*
X155757735Y-107111291D01*
X155610641Y-107144577D01*
X155382450Y-107120101D01*
X155060319Y-107039032D01*
X154812250Y-106962306D01*
X154426338Y-106849702D01*
X153971639Y-106740444D01*
X153431698Y-106631069D01*
X152790063Y-106518113D01*
X152411377Y-106456908D01*
X151932673Y-106410951D01*
X151364422Y-106404999D01*
X150736735Y-106436493D01*
X150079720Y-106502875D01*
X149423487Y-106601586D01*
X148798146Y-106730070D01*
X148593407Y-106781267D01*
X148257706Y-106857002D01*
X148020946Y-106877280D01*
X147866883Y-106840139D01*
X147779276Y-106743617D01*
X147757190Y-106680224D01*
X147748020Y-106540331D01*
X147807610Y-106425061D01*
X147949735Y-106325354D01*
X148188169Y-106232148D01*
X148536686Y-106136382D01*
X148611287Y-106118384D01*
X149072884Y-106012380D01*
X149468546Y-105932206D01*
X149830118Y-105874482D01*
X150189447Y-105835828D01*
X150578381Y-105812863D01*
X151028767Y-105802208D01*
X151572450Y-105800481D01*
X151605500Y-105800578D01*
G36*
X147570789Y-122480169D02*
X148213967Y-122485979D01*
X148823111Y-122493077D01*
X149385570Y-122501205D01*
X149888688Y-122510105D01*
X150319814Y-122519520D01*
X150666293Y-122529193D01*
X150915472Y-122538867D01*
X151054697Y-122548284D01*
X151074999Y-122551445D01*
X151215239Y-122596349D01*
X151434202Y-122678167D01*
X151694389Y-122782612D01*
X151819684Y-122835210D01*
X152250018Y-123056169D01*
X152669481Y-123339274D01*
X153040964Y-123656161D01*
X153327353Y-123978469D01*
X153341834Y-123998502D01*
X153484239Y-124198492D01*
X149932494Y-124154752D01*
X146380750Y-124111013D01*
X146888750Y-124368986D01*
X147144540Y-124505622D01*
X147379096Y-124642665D01*
X147552094Y-124756206D01*
X147587250Y-124783164D01*
X147777750Y-124939369D01*
X143316875Y-124939684D01*
X138856000Y-124940000D01*
X138856000Y-123924000D01*
X141808750Y-123924000D01*
X142407478Y-123923561D01*
X142965518Y-123922305D01*
X143470401Y-123920319D01*
X143909660Y-123917695D01*
X144270830Y-123914519D01*
X144541441Y-123910882D01*
X144709028Y-123906872D01*
X144761500Y-123902916D01*
X144741430Y-123838472D01*
X144686782Y-123678575D01*
X144605897Y-123447299D01*
X144507117Y-123168719D01*
X144506914Y-123168150D01*
X144252329Y-122454466D01*
X147570789Y-122480169D01*
X147570789Y-122480169D01*
G37*
X147570789Y-122480169D02*
X148213967Y-122485979D01*
X148823111Y-122493077D01*
X149385570Y-122501205D01*
X149888688Y-122510105D01*
X150319814Y-122519520D01*
X150666293Y-122529193D01*
X150915472Y-122538867D01*
X151054697Y-122548284D01*
X151074999Y-122551445D01*
X151215239Y-122596349D01*
X151434202Y-122678167D01*
X151694389Y-122782612D01*
X151819684Y-122835210D01*
X152250018Y-123056169D01*
X152669481Y-123339274D01*
X153040964Y-123656161D01*
X153327353Y-123978469D01*
X153341834Y-123998502D01*
X153484239Y-124198492D01*
X149932494Y-124154752D01*
X146380750Y-124111013D01*
X146888750Y-124368986D01*
X147144540Y-124505622D01*
X147379096Y-124642665D01*
X147552094Y-124756206D01*
X147587250Y-124783164D01*
X147777750Y-124939369D01*
X143316875Y-124939684D01*
X138856000Y-124940000D01*
X138856000Y-123924000D01*
X141808750Y-123924000D01*
X142407478Y-123923561D01*
X142965518Y-123922305D01*
X143470401Y-123920319D01*
X143909660Y-123917695D01*
X144270830Y-123914519D01*
X144541441Y-123910882D01*
X144709028Y-123906872D01*
X144761500Y-123902916D01*
X144741430Y-123838472D01*
X144686782Y-123678575D01*
X144605897Y-123447299D01*
X144507117Y-123168719D01*
X144506914Y-123168150D01*
X144252329Y-122454466D01*
X147570789Y-122480169D01*
D12*
X138500000Y-121080000D03*
X117672000Y-121080000D03*
X138500000Y-118032000D03*
X117672000Y-118032000D03*
D13*
X134820000Y-101800000D03*
D14*
X134820000Y-104340000D03*
D13*
X147990000Y-102040000D03*
D14*
X147990000Y-104580000D03*
D15*
X110270000Y-119910000D03*
D16*
X110270000Y-130070000D03*
D17*
X144820000Y-129250000D03*
D18*
X147360000Y-129250000D03*
X149900000Y-129250000D03*
M02*
