G04 #@! TF.FileFunction,Legend,Top*
%FSLAX46Y46*%
G04 Gerber Fmt 4.6, Leading zero omitted, Abs format (unit mm)*
G04 Created by KiCad (PCBNEW 4.0.7) date 09/18/18 19:10:44*
%MOMM*%
%LPD*%
G01*
G04 APERTURE LIST*
%ADD10C,0.100000*%
%ADD11C,0.010000*%
%ADD12C,0.120000*%
%ADD13C,2.686000*%
%ADD14R,2.200000X2.200000*%
%ADD15C,2.200000*%
%ADD16C,2.000000*%
%ADD17O,2.000000X2.000000*%
%ADD18R,1.797000X1.797000*%
%ADD19C,1.797000*%
G04 APERTURE END LIST*
D10*
D11*
G36*
X130093250Y-129412116D02*
X130110069Y-131300308D01*
X130126889Y-133188500D01*
X132348444Y-133188500D01*
X132865310Y-133189760D01*
X133339581Y-133193344D01*
X133756884Y-133198954D01*
X134102846Y-133206295D01*
X134363095Y-133215069D01*
X134523258Y-133224981D01*
X134570000Y-133234325D01*
X134536171Y-133302936D01*
X134445011Y-133451066D01*
X134312004Y-133654183D01*
X134209243Y-133805825D01*
X133848487Y-134331500D01*
X129399118Y-134315873D01*
X128734932Y-134313643D01*
X127958192Y-134311216D01*
X127083343Y-134308629D01*
X126124830Y-134305918D01*
X125097100Y-134303121D01*
X124014598Y-134300275D01*
X122891770Y-134297418D01*
X121743060Y-134294586D01*
X120582915Y-134291818D01*
X119425780Y-134289150D01*
X118286100Y-134286619D01*
X117178321Y-134284263D01*
X116990979Y-134283876D01*
X109032209Y-134267506D01*
X108479972Y-133712128D01*
X108190728Y-133407917D01*
X107976116Y-133146654D01*
X107810059Y-132893918D01*
X107695721Y-132676958D01*
X107464471Y-132111566D01*
X107282039Y-131490606D01*
X107168432Y-130882197D01*
X107168313Y-130881238D01*
X107123366Y-130521500D01*
X117679000Y-130521500D01*
X117680163Y-128441875D01*
X117683080Y-127730129D01*
X117691914Y-127126270D01*
X117708086Y-126611263D01*
X117733017Y-126166074D01*
X117768126Y-125771669D01*
X117814835Y-125409013D01*
X117874564Y-125059073D01*
X117948734Y-124702815D01*
X117964364Y-124633767D01*
X118050206Y-124301856D01*
X118169266Y-123899303D01*
X118308208Y-123466501D01*
X118453695Y-123043843D01*
X118592391Y-122671720D01*
X118689415Y-122437736D01*
X118853750Y-122069222D01*
X130093250Y-129412116D01*
X130093250Y-129412116D01*
G37*
X130093250Y-129412116D02*
X130110069Y-131300308D01*
X130126889Y-133188500D01*
X132348444Y-133188500D01*
X132865310Y-133189760D01*
X133339581Y-133193344D01*
X133756884Y-133198954D01*
X134102846Y-133206295D01*
X134363095Y-133215069D01*
X134523258Y-133224981D01*
X134570000Y-133234325D01*
X134536171Y-133302936D01*
X134445011Y-133451066D01*
X134312004Y-133654183D01*
X134209243Y-133805825D01*
X133848487Y-134331500D01*
X129399118Y-134315873D01*
X128734932Y-134313643D01*
X127958192Y-134311216D01*
X127083343Y-134308629D01*
X126124830Y-134305918D01*
X125097100Y-134303121D01*
X124014598Y-134300275D01*
X122891770Y-134297418D01*
X121743060Y-134294586D01*
X120582915Y-134291818D01*
X119425780Y-134289150D01*
X118286100Y-134286619D01*
X117178321Y-134284263D01*
X116990979Y-134283876D01*
X109032209Y-134267506D01*
X108479972Y-133712128D01*
X108190728Y-133407917D01*
X107976116Y-133146654D01*
X107810059Y-132893918D01*
X107695721Y-132676958D01*
X107464471Y-132111566D01*
X107282039Y-131490606D01*
X107168432Y-130882197D01*
X107168313Y-130881238D01*
X107123366Y-130521500D01*
X117679000Y-130521500D01*
X117680163Y-128441875D01*
X117683080Y-127730129D01*
X117691914Y-127126270D01*
X117708086Y-126611263D01*
X117733017Y-126166074D01*
X117768126Y-125771669D01*
X117814835Y-125409013D01*
X117874564Y-125059073D01*
X117948734Y-124702815D01*
X117964364Y-124633767D01*
X118050206Y-124301856D01*
X118169266Y-123899303D01*
X118308208Y-123466501D01*
X118453695Y-123043843D01*
X118592391Y-122671720D01*
X118689415Y-122437736D01*
X118853750Y-122069222D01*
X130093250Y-129412116D01*
G36*
X129587626Y-103844026D02*
X129655158Y-103987485D01*
X129735248Y-104185806D01*
X129988670Y-104756038D01*
X130319909Y-105350020D01*
X130701889Y-105919906D01*
X130763198Y-106002083D01*
X130884555Y-106147356D01*
X131085586Y-106369960D01*
X131355221Y-106658376D01*
X131682392Y-107001084D01*
X132056029Y-107386561D01*
X132465064Y-107803289D01*
X132898428Y-108239746D01*
X133247008Y-108587248D01*
X133790210Y-109124415D01*
X134253707Y-109578357D01*
X134646154Y-109957069D01*
X134976207Y-110268546D01*
X135252522Y-110520783D01*
X135483755Y-110721775D01*
X135678562Y-110879517D01*
X135845600Y-111002005D01*
X135903500Y-111040909D01*
X136779823Y-111551271D01*
X137668732Y-111940166D01*
X138585607Y-112212163D01*
X139545826Y-112371832D01*
X140556867Y-112423744D01*
X140896148Y-112425778D01*
X141129424Y-112433413D01*
X141277658Y-112449326D01*
X141361814Y-112476195D01*
X141402852Y-112516696D01*
X141410206Y-112532722D01*
X141416490Y-112616114D01*
X141418330Y-112810711D01*
X141416176Y-113100810D01*
X141410478Y-113470710D01*
X141401686Y-113904709D01*
X141390251Y-114387105D01*
X141376622Y-114902196D01*
X141361249Y-115434282D01*
X141344584Y-115967659D01*
X141327075Y-116486628D01*
X141309172Y-116975485D01*
X141291327Y-117418529D01*
X141273988Y-117800059D01*
X141257607Y-118104373D01*
X141245367Y-118283251D01*
X141205744Y-118776752D01*
X141745497Y-119180034D01*
X142424995Y-119751225D01*
X143055304Y-120405788D01*
X143612469Y-121115523D01*
X144072535Y-121852232D01*
X144165059Y-122028375D01*
X144413917Y-122520500D01*
X147143000Y-122520500D01*
X147143000Y-123504750D01*
X147142034Y-123841629D01*
X147139371Y-124128274D01*
X147135356Y-124343223D01*
X147130338Y-124465013D01*
X147127125Y-124484514D01*
X147065177Y-124458500D01*
X146924854Y-124397151D01*
X146825500Y-124353216D01*
X146706504Y-124301015D01*
X146593829Y-124255095D01*
X146478908Y-124215052D01*
X146353180Y-124180481D01*
X146208080Y-124150976D01*
X146035045Y-124126133D01*
X145825511Y-124105546D01*
X145570914Y-124088809D01*
X145262692Y-124075519D01*
X144892279Y-124065269D01*
X144451114Y-124057655D01*
X143930631Y-124052271D01*
X143322267Y-124048712D01*
X142617460Y-124046574D01*
X141807644Y-124045450D01*
X140884257Y-124044936D01*
X140305842Y-124044761D01*
X134833934Y-124043237D01*
X134692877Y-123615243D01*
X134501110Y-123095159D01*
X134255804Y-122523224D01*
X133979728Y-121949108D01*
X133695649Y-121422478D01*
X133658274Y-121358320D01*
X132980679Y-120329728D01*
X132209037Y-119382277D01*
X131350705Y-118521656D01*
X130413039Y-117753554D01*
X129403398Y-117083663D01*
X128329138Y-116517671D01*
X127197617Y-116061269D01*
X126543997Y-115856322D01*
X126262193Y-115774712D01*
X126088145Y-115717235D01*
X126006655Y-115676230D01*
X126002524Y-115644034D01*
X126060553Y-115612985D01*
X126061000Y-115612809D01*
X126165844Y-115569964D01*
X126367602Y-115486026D01*
X126646227Y-115369389D01*
X126981671Y-115228452D01*
X127353889Y-115071611D01*
X127458000Y-115027666D01*
X128118048Y-114744853D01*
X128673054Y-114497618D01*
X129137615Y-114278926D01*
X129526325Y-114081744D01*
X129853780Y-113899035D01*
X130052355Y-113777271D01*
X130202208Y-113679899D01*
X130300532Y-113597182D01*
X130347639Y-113506392D01*
X130343844Y-113384801D01*
X130289461Y-113209679D01*
X130184804Y-112958299D01*
X130067351Y-112692125D01*
X129825481Y-112085265D01*
X129597206Y-111399588D01*
X129397137Y-110683272D01*
X129239888Y-109984497D01*
X129229227Y-109928842D01*
X129157463Y-109445440D01*
X129103654Y-108871042D01*
X129068623Y-108240492D01*
X129053192Y-107588634D01*
X129058185Y-106950310D01*
X129084424Y-106360365D01*
X129132732Y-105853641D01*
X129132952Y-105851974D01*
X129182549Y-105506769D01*
X129241717Y-105143705D01*
X129306121Y-104784325D01*
X129371424Y-104450174D01*
X129433288Y-104162794D01*
X129487378Y-103943729D01*
X129529358Y-103814523D01*
X129548224Y-103788931D01*
X129587626Y-103844026D01*
X129587626Y-103844026D01*
G37*
X129587626Y-103844026D02*
X129655158Y-103987485D01*
X129735248Y-104185806D01*
X129988670Y-104756038D01*
X130319909Y-105350020D01*
X130701889Y-105919906D01*
X130763198Y-106002083D01*
X130884555Y-106147356D01*
X131085586Y-106369960D01*
X131355221Y-106658376D01*
X131682392Y-107001084D01*
X132056029Y-107386561D01*
X132465064Y-107803289D01*
X132898428Y-108239746D01*
X133247008Y-108587248D01*
X133790210Y-109124415D01*
X134253707Y-109578357D01*
X134646154Y-109957069D01*
X134976207Y-110268546D01*
X135252522Y-110520783D01*
X135483755Y-110721775D01*
X135678562Y-110879517D01*
X135845600Y-111002005D01*
X135903500Y-111040909D01*
X136779823Y-111551271D01*
X137668732Y-111940166D01*
X138585607Y-112212163D01*
X139545826Y-112371832D01*
X140556867Y-112423744D01*
X140896148Y-112425778D01*
X141129424Y-112433413D01*
X141277658Y-112449326D01*
X141361814Y-112476195D01*
X141402852Y-112516696D01*
X141410206Y-112532722D01*
X141416490Y-112616114D01*
X141418330Y-112810711D01*
X141416176Y-113100810D01*
X141410478Y-113470710D01*
X141401686Y-113904709D01*
X141390251Y-114387105D01*
X141376622Y-114902196D01*
X141361249Y-115434282D01*
X141344584Y-115967659D01*
X141327075Y-116486628D01*
X141309172Y-116975485D01*
X141291327Y-117418529D01*
X141273988Y-117800059D01*
X141257607Y-118104373D01*
X141245367Y-118283251D01*
X141205744Y-118776752D01*
X141745497Y-119180034D01*
X142424995Y-119751225D01*
X143055304Y-120405788D01*
X143612469Y-121115523D01*
X144072535Y-121852232D01*
X144165059Y-122028375D01*
X144413917Y-122520500D01*
X147143000Y-122520500D01*
X147143000Y-123504750D01*
X147142034Y-123841629D01*
X147139371Y-124128274D01*
X147135356Y-124343223D01*
X147130338Y-124465013D01*
X147127125Y-124484514D01*
X147065177Y-124458500D01*
X146924854Y-124397151D01*
X146825500Y-124353216D01*
X146706504Y-124301015D01*
X146593829Y-124255095D01*
X146478908Y-124215052D01*
X146353180Y-124180481D01*
X146208080Y-124150976D01*
X146035045Y-124126133D01*
X145825511Y-124105546D01*
X145570914Y-124088809D01*
X145262692Y-124075519D01*
X144892279Y-124065269D01*
X144451114Y-124057655D01*
X143930631Y-124052271D01*
X143322267Y-124048712D01*
X142617460Y-124046574D01*
X141807644Y-124045450D01*
X140884257Y-124044936D01*
X140305842Y-124044761D01*
X134833934Y-124043237D01*
X134692877Y-123615243D01*
X134501110Y-123095159D01*
X134255804Y-122523224D01*
X133979728Y-121949108D01*
X133695649Y-121422478D01*
X133658274Y-121358320D01*
X132980679Y-120329728D01*
X132209037Y-119382277D01*
X131350705Y-118521656D01*
X130413039Y-117753554D01*
X129403398Y-117083663D01*
X128329138Y-116517671D01*
X127197617Y-116061269D01*
X126543997Y-115856322D01*
X126262193Y-115774712D01*
X126088145Y-115717235D01*
X126006655Y-115676230D01*
X126002524Y-115644034D01*
X126060553Y-115612985D01*
X126061000Y-115612809D01*
X126165844Y-115569964D01*
X126367602Y-115486026D01*
X126646227Y-115369389D01*
X126981671Y-115228452D01*
X127353889Y-115071611D01*
X127458000Y-115027666D01*
X128118048Y-114744853D01*
X128673054Y-114497618D01*
X129137615Y-114278926D01*
X129526325Y-114081744D01*
X129853780Y-113899035D01*
X130052355Y-113777271D01*
X130202208Y-113679899D01*
X130300532Y-113597182D01*
X130347639Y-113506392D01*
X130343844Y-113384801D01*
X130289461Y-113209679D01*
X130184804Y-112958299D01*
X130067351Y-112692125D01*
X129825481Y-112085265D01*
X129597206Y-111399588D01*
X129397137Y-110683272D01*
X129239888Y-109984497D01*
X129229227Y-109928842D01*
X129157463Y-109445440D01*
X129103654Y-108871042D01*
X129068623Y-108240492D01*
X129053192Y-107588634D01*
X129058185Y-106950310D01*
X129084424Y-106360365D01*
X129132732Y-105853641D01*
X129132952Y-105851974D01*
X129182549Y-105506769D01*
X129241717Y-105143705D01*
X129306121Y-104784325D01*
X129371424Y-104450174D01*
X129433288Y-104162794D01*
X129487378Y-103943729D01*
X129529358Y-103814523D01*
X129548224Y-103788931D01*
X129587626Y-103844026D01*
G36*
X107487223Y-117515493D02*
X107479794Y-117581144D01*
X107444999Y-117744055D01*
X107388615Y-117978886D01*
X107324330Y-118230227D01*
X107167488Y-118910293D01*
X107027525Y-119683990D01*
X106922000Y-120425000D01*
X106913096Y-120454218D01*
X106909082Y-120372318D01*
X106910113Y-120195091D01*
X106916345Y-119938329D01*
X106917005Y-119917000D01*
X106947426Y-119436601D01*
X107004412Y-118998028D01*
X107064817Y-118710500D01*
X107137333Y-118452758D01*
X107221014Y-118183883D01*
X107306721Y-117929738D01*
X107385311Y-117716184D01*
X107447642Y-117569083D01*
X107484574Y-117514297D01*
X107487223Y-117515493D01*
X107487223Y-117515493D01*
G37*
X107487223Y-117515493D02*
X107479794Y-117581144D01*
X107444999Y-117744055D01*
X107388615Y-117978886D01*
X107324330Y-118230227D01*
X107167488Y-118910293D01*
X107027525Y-119683990D01*
X106922000Y-120425000D01*
X106913096Y-120454218D01*
X106909082Y-120372318D01*
X106910113Y-120195091D01*
X106916345Y-119938329D01*
X106917005Y-119917000D01*
X106947426Y-119436601D01*
X107004412Y-118998028D01*
X107064817Y-118710500D01*
X107137333Y-118452758D01*
X107221014Y-118183883D01*
X107306721Y-117929738D01*
X107385311Y-117716184D01*
X107447642Y-117569083D01*
X107484574Y-117514297D01*
X107487223Y-117515493D01*
G36*
X141820287Y-103125952D02*
X142030843Y-103145493D01*
X142204268Y-103189245D01*
X142385421Y-103266251D01*
X142480239Y-103313561D01*
X142726357Y-103457841D01*
X142900823Y-103616532D01*
X143054753Y-103836551D01*
X143060546Y-103846187D01*
X143236201Y-104209176D01*
X143312079Y-104537865D01*
X143285531Y-104817301D01*
X143248407Y-104906761D01*
X143161402Y-105030750D01*
X143007853Y-105211926D01*
X142813749Y-105420488D01*
X142702701Y-105532546D01*
X142253500Y-105975343D01*
X142253500Y-107339766D01*
X142477866Y-107564133D01*
X142702233Y-107788500D01*
X143414491Y-107788854D01*
X143860850Y-107798601D01*
X144198461Y-107829523D01*
X144444308Y-107884891D01*
X144615375Y-107967981D01*
X144691445Y-108034980D01*
X144798106Y-108232269D01*
X144842048Y-108486175D01*
X144815688Y-108738906D01*
X144792694Y-108806445D01*
X144715389Y-108948294D01*
X144605890Y-109050792D01*
X144444660Y-109119843D01*
X144212160Y-109161350D01*
X143888853Y-109181216D01*
X143538178Y-109185500D01*
X143054814Y-109175018D01*
X142669585Y-109139612D01*
X142355054Y-109073340D01*
X142083784Y-108970262D01*
X141828336Y-108824436D01*
X141807902Y-108810839D01*
X141531678Y-108625325D01*
X141327728Y-108780884D01*
X141080943Y-108939963D01*
X140804870Y-109054614D01*
X140475867Y-109130185D01*
X140070290Y-109172023D01*
X139564495Y-109185476D01*
X139538715Y-109185500D01*
X139161714Y-109182375D01*
X138890654Y-109171643D01*
X138704600Y-109151265D01*
X138582616Y-109119204D01*
X138520766Y-109086395D01*
X138329963Y-108887927D01*
X138229347Y-108643651D01*
X138222993Y-108387428D01*
X138314977Y-108153121D01*
X138396847Y-108056885D01*
X138540348Y-107945249D01*
X138708546Y-107868207D01*
X138926902Y-107820145D01*
X139220873Y-107795447D01*
X139613820Y-107788500D01*
X139933811Y-107786045D01*
X140154645Y-107775824D01*
X140304118Y-107753550D01*
X140410027Y-107714935D01*
X140500166Y-107655693D01*
X140506381Y-107650838D01*
X140668891Y-107481939D01*
X140776444Y-107262366D01*
X140836474Y-106968627D01*
X140856413Y-106577228D01*
X140856500Y-106544112D01*
X140856500Y-105994146D01*
X140316750Y-105442566D01*
X140086405Y-105203547D01*
X139932342Y-105030735D01*
X139839551Y-104902046D01*
X139793020Y-104795397D01*
X139777742Y-104688707D01*
X139777000Y-104648485D01*
X139837518Y-104223272D01*
X140011065Y-103839244D01*
X140285631Y-103515359D01*
X140649206Y-103270575D01*
X140650294Y-103270040D01*
X140830118Y-103193803D01*
X141014917Y-103148395D01*
X141246726Y-103126704D01*
X141527739Y-103121583D01*
X141820287Y-103125952D01*
X141820287Y-103125952D01*
G37*
X141820287Y-103125952D02*
X142030843Y-103145493D01*
X142204268Y-103189245D01*
X142385421Y-103266251D01*
X142480239Y-103313561D01*
X142726357Y-103457841D01*
X142900823Y-103616532D01*
X143054753Y-103836551D01*
X143060546Y-103846187D01*
X143236201Y-104209176D01*
X143312079Y-104537865D01*
X143285531Y-104817301D01*
X143248407Y-104906761D01*
X143161402Y-105030750D01*
X143007853Y-105211926D01*
X142813749Y-105420488D01*
X142702701Y-105532546D01*
X142253500Y-105975343D01*
X142253500Y-107339766D01*
X142477866Y-107564133D01*
X142702233Y-107788500D01*
X143414491Y-107788854D01*
X143860850Y-107798601D01*
X144198461Y-107829523D01*
X144444308Y-107884891D01*
X144615375Y-107967981D01*
X144691445Y-108034980D01*
X144798106Y-108232269D01*
X144842048Y-108486175D01*
X144815688Y-108738906D01*
X144792694Y-108806445D01*
X144715389Y-108948294D01*
X144605890Y-109050792D01*
X144444660Y-109119843D01*
X144212160Y-109161350D01*
X143888853Y-109181216D01*
X143538178Y-109185500D01*
X143054814Y-109175018D01*
X142669585Y-109139612D01*
X142355054Y-109073340D01*
X142083784Y-108970262D01*
X141828336Y-108824436D01*
X141807902Y-108810839D01*
X141531678Y-108625325D01*
X141327728Y-108780884D01*
X141080943Y-108939963D01*
X140804870Y-109054614D01*
X140475867Y-109130185D01*
X140070290Y-109172023D01*
X139564495Y-109185476D01*
X139538715Y-109185500D01*
X139161714Y-109182375D01*
X138890654Y-109171643D01*
X138704600Y-109151265D01*
X138582616Y-109119204D01*
X138520766Y-109086395D01*
X138329963Y-108887927D01*
X138229347Y-108643651D01*
X138222993Y-108387428D01*
X138314977Y-108153121D01*
X138396847Y-108056885D01*
X138540348Y-107945249D01*
X138708546Y-107868207D01*
X138926902Y-107820145D01*
X139220873Y-107795447D01*
X139613820Y-107788500D01*
X139933811Y-107786045D01*
X140154645Y-107775824D01*
X140304118Y-107753550D01*
X140410027Y-107714935D01*
X140500166Y-107655693D01*
X140506381Y-107650838D01*
X140668891Y-107481939D01*
X140776444Y-107262366D01*
X140836474Y-106968627D01*
X140856413Y-106577228D01*
X140856500Y-106544112D01*
X140856500Y-105994146D01*
X140316750Y-105442566D01*
X140086405Y-105203547D01*
X139932342Y-105030735D01*
X139839551Y-104902046D01*
X139793020Y-104795397D01*
X139777742Y-104688707D01*
X139777000Y-104648485D01*
X139837518Y-104223272D01*
X140011065Y-103839244D01*
X140285631Y-103515359D01*
X140649206Y-103270575D01*
X140650294Y-103270040D01*
X140830118Y-103193803D01*
X141014917Y-103148395D01*
X141246726Y-103126704D01*
X141527739Y-103121583D01*
X141820287Y-103125952D01*
G36*
X134811124Y-101111282D02*
X135202003Y-101257433D01*
X135549188Y-101507855D01*
X135647735Y-101610316D01*
X135807599Y-101814807D01*
X135925728Y-102028899D01*
X136007779Y-102275906D01*
X136059404Y-102579142D01*
X136086259Y-102961921D01*
X136093999Y-103447558D01*
X136094000Y-103450275D01*
X136094000Y-104359500D01*
X135125625Y-104356529D01*
X134725163Y-104352568D01*
X134425851Y-104341828D01*
X134201912Y-104321795D01*
X134027567Y-104289954D01*
X133877039Y-104243790D01*
X133844907Y-104231598D01*
X133458187Y-104018848D01*
X133156219Y-103727913D01*
X132943451Y-103378857D01*
X132824333Y-102991740D01*
X132803312Y-102586626D01*
X132884839Y-102183576D01*
X133073361Y-101802652D01*
X133255967Y-101575810D01*
X133598972Y-101301666D01*
X133987343Y-101133077D01*
X134398816Y-101069723D01*
X134811124Y-101111282D01*
X134811124Y-101111282D01*
G37*
X134811124Y-101111282D02*
X135202003Y-101257433D01*
X135549188Y-101507855D01*
X135647735Y-101610316D01*
X135807599Y-101814807D01*
X135925728Y-102028899D01*
X136007779Y-102275906D01*
X136059404Y-102579142D01*
X136086259Y-102961921D01*
X136093999Y-103447558D01*
X136094000Y-103450275D01*
X136094000Y-104359500D01*
X135125625Y-104356529D01*
X134725163Y-104352568D01*
X134425851Y-104341828D01*
X134201912Y-104321795D01*
X134027567Y-104289954D01*
X133877039Y-104243790D01*
X133844907Y-104231598D01*
X133458187Y-104018848D01*
X133156219Y-103727913D01*
X132943451Y-103378857D01*
X132824333Y-102991740D01*
X132803312Y-102586626D01*
X132884839Y-102183576D01*
X133073361Y-101802652D01*
X133255967Y-101575810D01*
X133598972Y-101301666D01*
X133987343Y-101133077D01*
X134398816Y-101069723D01*
X134811124Y-101111282D01*
G36*
X148297146Y-101079629D02*
X148678439Y-101181731D01*
X149028541Y-101376317D01*
X149327870Y-101663273D01*
X149526563Y-101977294D01*
X149667738Y-102398575D01*
X149692911Y-102823370D01*
X149610803Y-103232231D01*
X149430135Y-103605708D01*
X149159630Y-103924351D01*
X148808006Y-104168714D01*
X148487759Y-104293935D01*
X148338955Y-104317721D01*
X148094119Y-104337641D01*
X147784202Y-104351923D01*
X147440153Y-104358792D01*
X147349375Y-104359145D01*
X146444500Y-104359500D01*
X146444500Y-103324217D01*
X146445533Y-102935176D01*
X146450589Y-102648690D01*
X146462603Y-102440318D01*
X146484507Y-102285619D01*
X146519238Y-102160154D01*
X146569728Y-102039482D01*
X146608240Y-101960351D01*
X146851737Y-101598329D01*
X147161959Y-101329360D01*
X147519324Y-101153330D01*
X147904247Y-101070124D01*
X148297146Y-101079629D01*
X148297146Y-101079629D01*
G37*
X148297146Y-101079629D02*
X148678439Y-101181731D01*
X149028541Y-101376317D01*
X149327870Y-101663273D01*
X149526563Y-101977294D01*
X149667738Y-102398575D01*
X149692911Y-102823370D01*
X149610803Y-103232231D01*
X149430135Y-103605708D01*
X149159630Y-103924351D01*
X148808006Y-104168714D01*
X148487759Y-104293935D01*
X148338955Y-104317721D01*
X148094119Y-104337641D01*
X147784202Y-104351923D01*
X147440153Y-104358792D01*
X147349375Y-104359145D01*
X146444500Y-104359500D01*
X146444500Y-103324217D01*
X146445533Y-102935176D01*
X146450589Y-102648690D01*
X146462603Y-102440318D01*
X146484507Y-102285619D01*
X146519238Y-102160154D01*
X146569728Y-102039482D01*
X146608240Y-101960351D01*
X146851737Y-101598329D01*
X147161959Y-101329360D01*
X147519324Y-101153330D01*
X147904247Y-101070124D01*
X148297146Y-101079629D01*
G36*
X129269042Y-86568619D02*
X129520926Y-86644246D01*
X129822128Y-86750546D01*
X130150580Y-86880151D01*
X130484216Y-87025698D01*
X130545535Y-87054155D01*
X131369159Y-87506043D01*
X132104802Y-88046340D01*
X132748253Y-88670494D01*
X133295301Y-89373951D01*
X133741737Y-90152155D01*
X134018194Y-90810314D01*
X134096951Y-91051120D01*
X134175749Y-91328114D01*
X134248151Y-91613304D01*
X134307715Y-91878700D01*
X134348005Y-92096312D01*
X134362579Y-92238147D01*
X134355418Y-92276248D01*
X134298949Y-92247975D01*
X134157670Y-92152579D01*
X133946867Y-92001103D01*
X133681828Y-91804587D01*
X133377840Y-91574073D01*
X133292336Y-91508413D01*
X132980941Y-91270388D01*
X132705045Y-91062789D01*
X132479821Y-90896761D01*
X132320442Y-90783451D01*
X132242081Y-90734005D01*
X132236804Y-90733028D01*
X132246121Y-90798312D01*
X132287979Y-90957792D01*
X132355076Y-91185079D01*
X132413442Y-91371307D01*
X132493868Y-91630541D01*
X132554103Y-91840609D01*
X132586866Y-91975092D01*
X132589525Y-92010141D01*
X132535098Y-91980189D01*
X132397849Y-91883636D01*
X132194456Y-91732800D01*
X131941595Y-91540003D01*
X131719114Y-91367135D01*
X131438925Y-91150158D01*
X131194834Y-90965738D01*
X131003574Y-90826144D01*
X130881878Y-90743646D01*
X130845963Y-90726870D01*
X130845854Y-90793180D01*
X130858032Y-90962788D01*
X130880124Y-91212841D01*
X130909754Y-91520487D01*
X130944550Y-91862873D01*
X130982137Y-92217145D01*
X131020142Y-92560452D01*
X131056191Y-92869940D01*
X131087910Y-93122756D01*
X131112689Y-93294625D01*
X131122491Y-93428943D01*
X131089630Y-93486491D01*
X131005525Y-93463027D01*
X130861594Y-93354310D01*
X130649256Y-93156098D01*
X130470356Y-92977125D01*
X130207842Y-92698541D01*
X130008387Y-92451777D01*
X129838594Y-92189750D01*
X129665064Y-91865378D01*
X129625796Y-91786500D01*
X129284450Y-90957043D01*
X129041575Y-90054897D01*
X128899277Y-89090097D01*
X128859104Y-88135250D01*
X128866802Y-87755776D01*
X128884041Y-87390328D01*
X128908741Y-87062217D01*
X128938823Y-86794755D01*
X128972207Y-86611254D01*
X129001495Y-86538837D01*
X129088542Y-86531027D01*
X129269042Y-86568619D01*
X129269042Y-86568619D01*
G37*
X129269042Y-86568619D02*
X129520926Y-86644246D01*
X129822128Y-86750546D01*
X130150580Y-86880151D01*
X130484216Y-87025698D01*
X130545535Y-87054155D01*
X131369159Y-87506043D01*
X132104802Y-88046340D01*
X132748253Y-88670494D01*
X133295301Y-89373951D01*
X133741737Y-90152155D01*
X134018194Y-90810314D01*
X134096951Y-91051120D01*
X134175749Y-91328114D01*
X134248151Y-91613304D01*
X134307715Y-91878700D01*
X134348005Y-92096312D01*
X134362579Y-92238147D01*
X134355418Y-92276248D01*
X134298949Y-92247975D01*
X134157670Y-92152579D01*
X133946867Y-92001103D01*
X133681828Y-91804587D01*
X133377840Y-91574073D01*
X133292336Y-91508413D01*
X132980941Y-91270388D01*
X132705045Y-91062789D01*
X132479821Y-90896761D01*
X132320442Y-90783451D01*
X132242081Y-90734005D01*
X132236804Y-90733028D01*
X132246121Y-90798312D01*
X132287979Y-90957792D01*
X132355076Y-91185079D01*
X132413442Y-91371307D01*
X132493868Y-91630541D01*
X132554103Y-91840609D01*
X132586866Y-91975092D01*
X132589525Y-92010141D01*
X132535098Y-91980189D01*
X132397849Y-91883636D01*
X132194456Y-91732800D01*
X131941595Y-91540003D01*
X131719114Y-91367135D01*
X131438925Y-91150158D01*
X131194834Y-90965738D01*
X131003574Y-90826144D01*
X130881878Y-90743646D01*
X130845963Y-90726870D01*
X130845854Y-90793180D01*
X130858032Y-90962788D01*
X130880124Y-91212841D01*
X130909754Y-91520487D01*
X130944550Y-91862873D01*
X130982137Y-92217145D01*
X131020142Y-92560452D01*
X131056191Y-92869940D01*
X131087910Y-93122756D01*
X131112689Y-93294625D01*
X131122491Y-93428943D01*
X131089630Y-93486491D01*
X131005525Y-93463027D01*
X130861594Y-93354310D01*
X130649256Y-93156098D01*
X130470356Y-92977125D01*
X130207842Y-92698541D01*
X130008387Y-92451777D01*
X129838594Y-92189750D01*
X129665064Y-91865378D01*
X129625796Y-91786500D01*
X129284450Y-90957043D01*
X129041575Y-90054897D01*
X128899277Y-89090097D01*
X128859104Y-88135250D01*
X128866802Y-87755776D01*
X128884041Y-87390328D01*
X128908741Y-87062217D01*
X128938823Y-86794755D01*
X128972207Y-86611254D01*
X129001495Y-86538837D01*
X129088542Y-86531027D01*
X129269042Y-86568619D01*
G36*
X153595002Y-86533336D02*
X153625720Y-86621863D01*
X153657299Y-86810872D01*
X153687262Y-87073886D01*
X153713135Y-87384432D01*
X153732440Y-87716034D01*
X153742701Y-88042216D01*
X153743576Y-88121877D01*
X153699038Y-89111797D01*
X153555384Y-90060406D01*
X153316046Y-90951264D01*
X152984459Y-91767932D01*
X152980141Y-91776791D01*
X152809032Y-92109802D01*
X152648623Y-92372468D01*
X152466554Y-92610315D01*
X152230468Y-92868868D01*
X152132809Y-92968907D01*
X151920569Y-93177711D01*
X151735576Y-93348026D01*
X151598286Y-93461780D01*
X151530536Y-93501000D01*
X151483768Y-93455190D01*
X151481247Y-93308346D01*
X151490339Y-93231125D01*
X151523576Y-92974835D01*
X151561202Y-92660963D01*
X151600895Y-92311836D01*
X151640333Y-91949778D01*
X151677195Y-91597115D01*
X151709157Y-91276173D01*
X151733899Y-91009277D01*
X151749099Y-90818752D01*
X151752434Y-90726924D01*
X151751282Y-90722116D01*
X151696463Y-90751686D01*
X151558937Y-90847994D01*
X151355398Y-90998727D01*
X151102540Y-91191574D01*
X150880307Y-91364490D01*
X150600561Y-91581899D01*
X150357252Y-91767097D01*
X150167027Y-91907727D01*
X150046533Y-91991435D01*
X150011626Y-92009225D01*
X150020602Y-91943995D01*
X150061153Y-91784159D01*
X150126221Y-91556091D01*
X150183673Y-91366423D01*
X150262112Y-91106097D01*
X150321457Y-90895539D01*
X150354556Y-90761005D01*
X150358168Y-90726002D01*
X150304884Y-90757443D01*
X150166498Y-90855689D01*
X149958131Y-91009537D01*
X149694903Y-91207789D01*
X149391934Y-91439244D01*
X149306379Y-91505129D01*
X148994974Y-91743211D01*
X148718646Y-91950424D01*
X148492630Y-92115677D01*
X148332163Y-92227875D01*
X148252483Y-92275926D01*
X148246829Y-92276496D01*
X148245730Y-92206307D01*
X148266487Y-92044353D01*
X148304762Y-91823140D01*
X148313008Y-91780405D01*
X148548720Y-90895997D01*
X148895503Y-90069566D01*
X149348482Y-89307268D01*
X149902781Y-88615258D01*
X150553526Y-87999690D01*
X151295841Y-87466720D01*
X152056464Y-87054155D01*
X152375440Y-86912270D01*
X152698798Y-86781721D01*
X153003810Y-86670202D01*
X153267747Y-86585405D01*
X153467882Y-86535026D01*
X153581487Y-86526757D01*
X153595002Y-86533336D01*
X153595002Y-86533336D01*
G37*
X153595002Y-86533336D02*
X153625720Y-86621863D01*
X153657299Y-86810872D01*
X153687262Y-87073886D01*
X153713135Y-87384432D01*
X153732440Y-87716034D01*
X153742701Y-88042216D01*
X153743576Y-88121877D01*
X153699038Y-89111797D01*
X153555384Y-90060406D01*
X153316046Y-90951264D01*
X152984459Y-91767932D01*
X152980141Y-91776791D01*
X152809032Y-92109802D01*
X152648623Y-92372468D01*
X152466554Y-92610315D01*
X152230468Y-92868868D01*
X152132809Y-92968907D01*
X151920569Y-93177711D01*
X151735576Y-93348026D01*
X151598286Y-93461780D01*
X151530536Y-93501000D01*
X151483768Y-93455190D01*
X151481247Y-93308346D01*
X151490339Y-93231125D01*
X151523576Y-92974835D01*
X151561202Y-92660963D01*
X151600895Y-92311836D01*
X151640333Y-91949778D01*
X151677195Y-91597115D01*
X151709157Y-91276173D01*
X151733899Y-91009277D01*
X151749099Y-90818752D01*
X151752434Y-90726924D01*
X151751282Y-90722116D01*
X151696463Y-90751686D01*
X151558937Y-90847994D01*
X151355398Y-90998727D01*
X151102540Y-91191574D01*
X150880307Y-91364490D01*
X150600561Y-91581899D01*
X150357252Y-91767097D01*
X150167027Y-91907727D01*
X150046533Y-91991435D01*
X150011626Y-92009225D01*
X150020602Y-91943995D01*
X150061153Y-91784159D01*
X150126221Y-91556091D01*
X150183673Y-91366423D01*
X150262112Y-91106097D01*
X150321457Y-90895539D01*
X150354556Y-90761005D01*
X150358168Y-90726002D01*
X150304884Y-90757443D01*
X150166498Y-90855689D01*
X149958131Y-91009537D01*
X149694903Y-91207789D01*
X149391934Y-91439244D01*
X149306379Y-91505129D01*
X148994974Y-91743211D01*
X148718646Y-91950424D01*
X148492630Y-92115677D01*
X148332163Y-92227875D01*
X148252483Y-92275926D01*
X148246829Y-92276496D01*
X148245730Y-92206307D01*
X148266487Y-92044353D01*
X148304762Y-91823140D01*
X148313008Y-91780405D01*
X148548720Y-90895997D01*
X148895503Y-90069566D01*
X149348482Y-89307268D01*
X149902781Y-88615258D01*
X150553526Y-87999690D01*
X151295841Y-87466720D01*
X152056464Y-87054155D01*
X152375440Y-86912270D01*
X152698798Y-86781721D01*
X153003810Y-86670202D01*
X153267747Y-86585405D01*
X153467882Y-86535026D01*
X153581487Y-86526757D01*
X153595002Y-86533336D01*
D12*
X135898608Y-104742335D02*
G75*
G03X136055516Y-101510000I-1078608J1672335D01*
G01*
X133741392Y-104742335D02*
G75*
G02X133584484Y-101510000I1078608J1672335D01*
G01*
X135899837Y-104111130D02*
G75*
G03X135900000Y-102029039I-1079837J1041130D01*
G01*
X133740163Y-104111130D02*
G75*
G02X133740000Y-102029039I1079837J1041130D01*
G01*
X136056000Y-101510000D02*
X135900000Y-101510000D01*
X133740000Y-101510000D02*
X133584000Y-101510000D01*
X149068608Y-104982335D02*
G75*
G03X149225516Y-101750000I-1078608J1672335D01*
G01*
X146911392Y-104982335D02*
G75*
G02X146754484Y-101750000I1078608J1672335D01*
G01*
X149069837Y-104351130D02*
G75*
G03X149070000Y-102269039I-1079837J1041130D01*
G01*
X146910163Y-104351130D02*
G75*
G02X146910000Y-102269039I1079837J1041130D01*
G01*
X149226000Y-101750000D02*
X149070000Y-101750000D01*
X146910000Y-101750000D02*
X146754000Y-101750000D01*
%LPC*%
D11*
G36*
X147402750Y-108986513D02*
X147862025Y-109033593D01*
X148358395Y-109103004D01*
X148874800Y-109192434D01*
X149394182Y-109299567D01*
X149899479Y-109422091D01*
X150373634Y-109557690D01*
X150702156Y-109667883D01*
X151089837Y-109820752D01*
X151502910Y-110005461D01*
X151923051Y-110211587D01*
X152331938Y-110428709D01*
X152711246Y-110646404D01*
X153042654Y-110854252D01*
X153307838Y-111041829D01*
X153488474Y-111198714D01*
X153558688Y-111292630D01*
X153590002Y-111436719D01*
X153529269Y-111585912D01*
X153519793Y-111600648D01*
X153397415Y-111721038D01*
X153237163Y-111751372D01*
X153025530Y-111689623D01*
X152749010Y-111533764D01*
X152655000Y-111470841D01*
X152097996Y-111126410D01*
X151448097Y-110788944D01*
X150739213Y-110472485D01*
X150005251Y-110191070D01*
X149280119Y-109958740D01*
X148597726Y-109789534D01*
X148591000Y-109788161D01*
X148269985Y-109733550D01*
X147878340Y-109682872D01*
X147472405Y-109642774D01*
X147199745Y-109624021D01*
X146853259Y-109602730D01*
X146610945Y-109578754D01*
X146449983Y-109548104D01*
X146347553Y-109506792D01*
X146294870Y-109465870D01*
X146190223Y-109305736D01*
X146210895Y-109153727D01*
X146277785Y-109067785D01*
X146418087Y-109002400D01*
X146663722Y-108968603D01*
X146997629Y-108964078D01*
X147402750Y-108986513D01*
X147402750Y-108986513D01*
G37*
X147402750Y-108986513D02*
X147862025Y-109033593D01*
X148358395Y-109103004D01*
X148874800Y-109192434D01*
X149394182Y-109299567D01*
X149899479Y-109422091D01*
X150373634Y-109557690D01*
X150702156Y-109667883D01*
X151089837Y-109820752D01*
X151502910Y-110005461D01*
X151923051Y-110211587D01*
X152331938Y-110428709D01*
X152711246Y-110646404D01*
X153042654Y-110854252D01*
X153307838Y-111041829D01*
X153488474Y-111198714D01*
X153558688Y-111292630D01*
X153590002Y-111436719D01*
X153529269Y-111585912D01*
X153519793Y-111600648D01*
X153397415Y-111721038D01*
X153237163Y-111751372D01*
X153025530Y-111689623D01*
X152749010Y-111533764D01*
X152655000Y-111470841D01*
X152097996Y-111126410D01*
X151448097Y-110788944D01*
X150739213Y-110472485D01*
X150005251Y-110191070D01*
X149280119Y-109958740D01*
X148597726Y-109789534D01*
X148591000Y-109788161D01*
X148269985Y-109733550D01*
X147878340Y-109682872D01*
X147472405Y-109642774D01*
X147199745Y-109624021D01*
X146853259Y-109602730D01*
X146610945Y-109578754D01*
X146449983Y-109548104D01*
X146347553Y-109506792D01*
X146294870Y-109465870D01*
X146190223Y-109305736D01*
X146210895Y-109153727D01*
X146277785Y-109067785D01*
X146418087Y-109002400D01*
X146663722Y-108968603D01*
X146997629Y-108964078D01*
X147402750Y-108986513D01*
G36*
X137413683Y-108979901D02*
X137657425Y-108992913D01*
X137804600Y-109013983D01*
X137885608Y-109054043D01*
X137930851Y-109124024D01*
X137949140Y-109172452D01*
X137975183Y-109329755D01*
X137909301Y-109455881D01*
X137901290Y-109464905D01*
X137835327Y-109517654D01*
X137733190Y-109555685D01*
X137571603Y-109583093D01*
X137327294Y-109603976D01*
X137016583Y-109620617D01*
X135985373Y-109723682D01*
X134939081Y-109933025D01*
X133905082Y-110239855D01*
X132910753Y-110635379D01*
X131983470Y-111110803D01*
X131555161Y-111374659D01*
X131244689Y-111563007D01*
X131011055Y-111666918D01*
X130839774Y-111690211D01*
X130716359Y-111636703D01*
X130684684Y-111604074D01*
X130624829Y-111469028D01*
X130666057Y-111319749D01*
X130814048Y-111147820D01*
X131074486Y-110944823D01*
X131176072Y-110876161D01*
X131946716Y-110417766D01*
X132782816Y-110009790D01*
X133661006Y-109659337D01*
X134557919Y-109373509D01*
X135450189Y-109159410D01*
X136314449Y-109024144D01*
X137127333Y-108974814D01*
X137413683Y-108979901D01*
X137413683Y-108979901D01*
G37*
X137413683Y-108979901D02*
X137657425Y-108992913D01*
X137804600Y-109013983D01*
X137885608Y-109054043D01*
X137930851Y-109124024D01*
X137949140Y-109172452D01*
X137975183Y-109329755D01*
X137909301Y-109455881D01*
X137901290Y-109464905D01*
X137835327Y-109517654D01*
X137733190Y-109555685D01*
X137571603Y-109583093D01*
X137327294Y-109603976D01*
X137016583Y-109620617D01*
X135985373Y-109723682D01*
X134939081Y-109933025D01*
X133905082Y-110239855D01*
X132910753Y-110635379D01*
X131983470Y-111110803D01*
X131555161Y-111374659D01*
X131244689Y-111563007D01*
X131011055Y-111666918D01*
X130839774Y-111690211D01*
X130716359Y-111636703D01*
X130684684Y-111604074D01*
X130624829Y-111469028D01*
X130666057Y-111319749D01*
X130814048Y-111147820D01*
X131074486Y-110944823D01*
X131176072Y-110876161D01*
X131946716Y-110417766D01*
X132782816Y-110009790D01*
X133661006Y-109659337D01*
X134557919Y-109373509D01*
X135450189Y-109159410D01*
X136314449Y-109024144D01*
X137127333Y-108974814D01*
X137413683Y-108979901D01*
G36*
X136419205Y-107621947D02*
X136470764Y-107626267D01*
X136874065Y-107662706D01*
X137168873Y-107694564D01*
X137373349Y-107726649D01*
X137505652Y-107763767D01*
X137583943Y-107810725D01*
X137626380Y-107872328D01*
X137647295Y-107937666D01*
X137662927Y-108115897D01*
X137593757Y-108227358D01*
X137427387Y-108281480D01*
X137185363Y-108288993D01*
X136376435Y-108267394D01*
X135680618Y-108259913D01*
X135084770Y-108266914D01*
X134575748Y-108288758D01*
X134140411Y-108325810D01*
X133765616Y-108378432D01*
X133732000Y-108384377D01*
X132712595Y-108614705D01*
X131716089Y-108930338D01*
X130768450Y-109321026D01*
X129895646Y-109776519D01*
X129382802Y-110101084D01*
X129144548Y-110260170D01*
X128941762Y-110388073D01*
X128798870Y-110469844D01*
X128744064Y-110492000D01*
X128641804Y-110457484D01*
X128563439Y-110409493D01*
X128464692Y-110272986D01*
X128478864Y-110101349D01*
X128601339Y-109907571D01*
X128808906Y-109718487D01*
X129216570Y-109441766D01*
X129719417Y-109149814D01*
X130289058Y-108856706D01*
X130897101Y-108576513D01*
X131515156Y-108323308D01*
X131922250Y-108175240D01*
X132756043Y-107934654D01*
X133663446Y-107754106D01*
X134603647Y-107638522D01*
X135535837Y-107592827D01*
X136419205Y-107621947D01*
X136419205Y-107621947D01*
G37*
X136419205Y-107621947D02*
X136470764Y-107626267D01*
X136874065Y-107662706D01*
X137168873Y-107694564D01*
X137373349Y-107726649D01*
X137505652Y-107763767D01*
X137583943Y-107810725D01*
X137626380Y-107872328D01*
X137647295Y-107937666D01*
X137662927Y-108115897D01*
X137593757Y-108227358D01*
X137427387Y-108281480D01*
X137185363Y-108288993D01*
X136376435Y-108267394D01*
X135680618Y-108259913D01*
X135084770Y-108266914D01*
X134575748Y-108288758D01*
X134140411Y-108325810D01*
X133765616Y-108378432D01*
X133732000Y-108384377D01*
X132712595Y-108614705D01*
X131716089Y-108930338D01*
X130768450Y-109321026D01*
X129895646Y-109776519D01*
X129382802Y-110101084D01*
X129144548Y-110260170D01*
X128941762Y-110388073D01*
X128798870Y-110469844D01*
X128744064Y-110492000D01*
X128641804Y-110457484D01*
X128563439Y-110409493D01*
X128464692Y-110272986D01*
X128478864Y-110101349D01*
X128601339Y-109907571D01*
X128808906Y-109718487D01*
X129216570Y-109441766D01*
X129719417Y-109149814D01*
X130289058Y-108856706D01*
X130897101Y-108576513D01*
X131515156Y-108323308D01*
X131922250Y-108175240D01*
X132756043Y-107934654D01*
X133663446Y-107754106D01*
X134603647Y-107638522D01*
X135535837Y-107592827D01*
X136419205Y-107621947D01*
G36*
X149898491Y-107660572D02*
X151024067Y-107835005D01*
X152124297Y-108108852D01*
X153176507Y-108477524D01*
X154158026Y-108936431D01*
X154179000Y-108947693D01*
X154462366Y-109106509D01*
X154762681Y-109285184D01*
X155057198Y-109468975D01*
X155323170Y-109643138D01*
X155537853Y-109792931D01*
X155678499Y-109903612D01*
X155717902Y-109945134D01*
X155764151Y-110114002D01*
X155728159Y-110299356D01*
X155666714Y-110392214D01*
X155550001Y-110469663D01*
X155407183Y-110478484D01*
X155218972Y-110413664D01*
X154966079Y-110270186D01*
X154814000Y-110170522D01*
X154102551Y-109737085D01*
X153307779Y-109333465D01*
X152472916Y-108978862D01*
X151641195Y-108692472D01*
X151226250Y-108577373D01*
X150421653Y-108397286D01*
X149677980Y-108282933D01*
X148949950Y-108230412D01*
X148192281Y-108235816D01*
X147653427Y-108269264D01*
X147243195Y-108299452D01*
X146942466Y-108312365D01*
X146734516Y-108304705D01*
X146602619Y-108273174D01*
X146530050Y-108214475D01*
X146500085Y-108125309D01*
X146495500Y-108040938D01*
X146517219Y-107925713D01*
X146592456Y-107835811D01*
X146736330Y-107765883D01*
X146963959Y-107710581D01*
X147290461Y-107664558D01*
X147661985Y-107628310D01*
X148770240Y-107590144D01*
X149898491Y-107660572D01*
X149898491Y-107660572D01*
G37*
X149898491Y-107660572D02*
X151024067Y-107835005D01*
X152124297Y-108108852D01*
X153176507Y-108477524D01*
X154158026Y-108936431D01*
X154179000Y-108947693D01*
X154462366Y-109106509D01*
X154762681Y-109285184D01*
X155057198Y-109468975D01*
X155323170Y-109643138D01*
X155537853Y-109792931D01*
X155678499Y-109903612D01*
X155717902Y-109945134D01*
X155764151Y-110114002D01*
X155728159Y-110299356D01*
X155666714Y-110392214D01*
X155550001Y-110469663D01*
X155407183Y-110478484D01*
X155218972Y-110413664D01*
X154966079Y-110270186D01*
X154814000Y-110170522D01*
X154102551Y-109737085D01*
X153307779Y-109333465D01*
X152472916Y-108978862D01*
X151641195Y-108692472D01*
X151226250Y-108577373D01*
X150421653Y-108397286D01*
X149677980Y-108282933D01*
X148949950Y-108230412D01*
X148192281Y-108235816D01*
X147653427Y-108269264D01*
X147243195Y-108299452D01*
X146942466Y-108312365D01*
X146734516Y-108304705D01*
X146602619Y-108273174D01*
X146530050Y-108214475D01*
X146500085Y-108125309D01*
X146495500Y-108040938D01*
X146517219Y-107925713D01*
X146592456Y-107835811D01*
X146736330Y-107765883D01*
X146963959Y-107710581D01*
X147290461Y-107664558D01*
X147661985Y-107628310D01*
X148770240Y-107590144D01*
X149898491Y-107660572D01*
G36*
X134201879Y-105897861D02*
X135270926Y-106073553D01*
X136061531Y-106270217D01*
X136304290Y-106368566D01*
X136430754Y-106495586D01*
X136450587Y-106663709D01*
X136430796Y-106745352D01*
X136349818Y-106859426D01*
X136192675Y-106907585D01*
X135947731Y-106890872D01*
X135627833Y-106817163D01*
X135127247Y-106688994D01*
X134660626Y-106594539D01*
X134193266Y-106529656D01*
X133690464Y-106490203D01*
X133117515Y-106472038D01*
X132716000Y-106469646D01*
X131970834Y-106483990D01*
X131317486Y-106528258D01*
X130723281Y-106607252D01*
X130155546Y-106725775D01*
X129581607Y-106888628D01*
X129352625Y-106963972D01*
X129080052Y-107055221D01*
X128852078Y-107128826D01*
X128695313Y-107176367D01*
X128638250Y-107190000D01*
X128561354Y-107149462D01*
X128461500Y-107063000D01*
X128348446Y-106902705D01*
X128354297Y-106758770D01*
X128482007Y-106622052D01*
X128633227Y-106531978D01*
X128791699Y-106468824D01*
X129047055Y-106387418D01*
X129371734Y-106294854D01*
X129738175Y-106198225D01*
X130118816Y-106104626D01*
X130486097Y-106021151D01*
X130812455Y-105954894D01*
X130999573Y-105922894D01*
X132031693Y-105820163D01*
X133110632Y-105812608D01*
X134201879Y-105897861D01*
X134201879Y-105897861D01*
G37*
X134201879Y-105897861D02*
X135270926Y-106073553D01*
X136061531Y-106270217D01*
X136304290Y-106368566D01*
X136430754Y-106495586D01*
X136450587Y-106663709D01*
X136430796Y-106745352D01*
X136349818Y-106859426D01*
X136192675Y-106907585D01*
X135947731Y-106890872D01*
X135627833Y-106817163D01*
X135127247Y-106688994D01*
X134660626Y-106594539D01*
X134193266Y-106529656D01*
X133690464Y-106490203D01*
X133117515Y-106472038D01*
X132716000Y-106469646D01*
X131970834Y-106483990D01*
X131317486Y-106528258D01*
X130723281Y-106607252D01*
X130155546Y-106725775D01*
X129581607Y-106888628D01*
X129352625Y-106963972D01*
X129080052Y-107055221D01*
X128852078Y-107128826D01*
X128695313Y-107176367D01*
X128638250Y-107190000D01*
X128561354Y-107149462D01*
X128461500Y-107063000D01*
X128348446Y-106902705D01*
X128354297Y-106758770D01*
X128482007Y-106622052D01*
X128633227Y-106531978D01*
X128791699Y-106468824D01*
X129047055Y-106387418D01*
X129371734Y-106294854D01*
X129738175Y-106198225D01*
X130118816Y-106104626D01*
X130486097Y-106021151D01*
X130812455Y-105954894D01*
X130999573Y-105922894D01*
X132031693Y-105820163D01*
X133110632Y-105812608D01*
X134201879Y-105897861D01*
G36*
X151575500Y-105830578D02*
X152261001Y-105841487D01*
X152853161Y-105872709D01*
X153384682Y-105928989D01*
X153888266Y-106015072D01*
X154396613Y-106135704D01*
X154942426Y-106295628D01*
X155077512Y-106338730D01*
X155393920Y-106445617D01*
X155607462Y-106534071D01*
X155737889Y-106618738D01*
X155804953Y-106714266D01*
X155828404Y-106835300D01*
X155830000Y-106896743D01*
X155806574Y-107049070D01*
X155727735Y-107141291D01*
X155580641Y-107174577D01*
X155352450Y-107150101D01*
X155030319Y-107069032D01*
X154782250Y-106992306D01*
X154396338Y-106879702D01*
X153941639Y-106770444D01*
X153401698Y-106661069D01*
X152760063Y-106548113D01*
X152381377Y-106486908D01*
X151902673Y-106440951D01*
X151334422Y-106434999D01*
X150706735Y-106466493D01*
X150049720Y-106532875D01*
X149393487Y-106631586D01*
X148768146Y-106760070D01*
X148563407Y-106811267D01*
X148227706Y-106887002D01*
X147990946Y-106907280D01*
X147836883Y-106870139D01*
X147749276Y-106773617D01*
X147727190Y-106710224D01*
X147718020Y-106570331D01*
X147777610Y-106455061D01*
X147919735Y-106355354D01*
X148158169Y-106262148D01*
X148506686Y-106166382D01*
X148581287Y-106148384D01*
X149042884Y-106042380D01*
X149438546Y-105962206D01*
X149800118Y-105904482D01*
X150159447Y-105865828D01*
X150548381Y-105842863D01*
X150998767Y-105832208D01*
X151542450Y-105830481D01*
X151575500Y-105830578D01*
X151575500Y-105830578D01*
G37*
X151575500Y-105830578D02*
X152261001Y-105841487D01*
X152853161Y-105872709D01*
X153384682Y-105928989D01*
X153888266Y-106015072D01*
X154396613Y-106135704D01*
X154942426Y-106295628D01*
X155077512Y-106338730D01*
X155393920Y-106445617D01*
X155607462Y-106534071D01*
X155737889Y-106618738D01*
X155804953Y-106714266D01*
X155828404Y-106835300D01*
X155830000Y-106896743D01*
X155806574Y-107049070D01*
X155727735Y-107141291D01*
X155580641Y-107174577D01*
X155352450Y-107150101D01*
X155030319Y-107069032D01*
X154782250Y-106992306D01*
X154396338Y-106879702D01*
X153941639Y-106770444D01*
X153401698Y-106661069D01*
X152760063Y-106548113D01*
X152381377Y-106486908D01*
X151902673Y-106440951D01*
X151334422Y-106434999D01*
X150706735Y-106466493D01*
X150049720Y-106532875D01*
X149393487Y-106631586D01*
X148768146Y-106760070D01*
X148563407Y-106811267D01*
X148227706Y-106887002D01*
X147990946Y-106907280D01*
X147836883Y-106870139D01*
X147749276Y-106773617D01*
X147727190Y-106710224D01*
X147718020Y-106570331D01*
X147777610Y-106455061D01*
X147919735Y-106355354D01*
X148158169Y-106262148D01*
X148506686Y-106166382D01*
X148581287Y-106148384D01*
X149042884Y-106042380D01*
X149438546Y-105962206D01*
X149800118Y-105904482D01*
X150159447Y-105865828D01*
X150548381Y-105842863D01*
X150998767Y-105832208D01*
X151542450Y-105830481D01*
X151575500Y-105830578D01*
G36*
X147450789Y-122450169D02*
X148093967Y-122455979D01*
X148703111Y-122463077D01*
X149265570Y-122471205D01*
X149768688Y-122480105D01*
X150199814Y-122489520D01*
X150546293Y-122499193D01*
X150795472Y-122508867D01*
X150934697Y-122518284D01*
X150954999Y-122521445D01*
X151095239Y-122566349D01*
X151314202Y-122648167D01*
X151574389Y-122752612D01*
X151699684Y-122805210D01*
X152130018Y-123026169D01*
X152549481Y-123309274D01*
X152920964Y-123626161D01*
X153207353Y-123948469D01*
X153221834Y-123968502D01*
X153364239Y-124168492D01*
X149812494Y-124124752D01*
X146260750Y-124081013D01*
X146768750Y-124338986D01*
X147024540Y-124475622D01*
X147259096Y-124612665D01*
X147432094Y-124726206D01*
X147467250Y-124753164D01*
X147657750Y-124909369D01*
X143196875Y-124909684D01*
X138736000Y-124910000D01*
X138736000Y-123894000D01*
X141688750Y-123894000D01*
X142287478Y-123893561D01*
X142845518Y-123892305D01*
X143350401Y-123890319D01*
X143789660Y-123887695D01*
X144150830Y-123884519D01*
X144421441Y-123880882D01*
X144589028Y-123876872D01*
X144641500Y-123872916D01*
X144621430Y-123808472D01*
X144566782Y-123648575D01*
X144485897Y-123417299D01*
X144387117Y-123138719D01*
X144386914Y-123138150D01*
X144132329Y-122424466D01*
X147450789Y-122450169D01*
X147450789Y-122450169D01*
G37*
X147450789Y-122450169D02*
X148093967Y-122455979D01*
X148703111Y-122463077D01*
X149265570Y-122471205D01*
X149768688Y-122480105D01*
X150199814Y-122489520D01*
X150546293Y-122499193D01*
X150795472Y-122508867D01*
X150934697Y-122518284D01*
X150954999Y-122521445D01*
X151095239Y-122566349D01*
X151314202Y-122648167D01*
X151574389Y-122752612D01*
X151699684Y-122805210D01*
X152130018Y-123026169D01*
X152549481Y-123309274D01*
X152920964Y-123626161D01*
X153207353Y-123948469D01*
X153221834Y-123968502D01*
X153364239Y-124168492D01*
X149812494Y-124124752D01*
X146260750Y-124081013D01*
X146768750Y-124338986D01*
X147024540Y-124475622D01*
X147259096Y-124612665D01*
X147432094Y-124726206D01*
X147467250Y-124753164D01*
X147657750Y-124909369D01*
X143196875Y-124909684D01*
X138736000Y-124910000D01*
X138736000Y-123894000D01*
X141688750Y-123894000D01*
X142287478Y-123893561D01*
X142845518Y-123892305D01*
X143350401Y-123890319D01*
X143789660Y-123887695D01*
X144150830Y-123884519D01*
X144421441Y-123880882D01*
X144589028Y-123876872D01*
X144641500Y-123872916D01*
X144621430Y-123808472D01*
X144566782Y-123648575D01*
X144485897Y-123417299D01*
X144387117Y-123138719D01*
X144386914Y-123138150D01*
X144132329Y-122424466D01*
X147450789Y-122450169D01*
D13*
X138500000Y-121080000D03*
X117672000Y-121080000D03*
X138500000Y-118032000D03*
X117672000Y-118032000D03*
D14*
X134820000Y-101800000D03*
D15*
X134820000Y-104340000D03*
D14*
X147990000Y-102040000D03*
D15*
X147990000Y-104580000D03*
D16*
X110270000Y-119910000D03*
D17*
X110270000Y-130070000D03*
D18*
X144820000Y-129250000D03*
D19*
X147360000Y-129250000D03*
X149900000Y-129250000D03*
M02*
