G04 #@! TF.FileFunction,Copper,L2,Bot,Signal*
%FSLAX46Y46*%
G04 Gerber Fmt 4.6, Leading zero omitted, Abs format (unit mm)*
G04 Created by KiCad (PCBNEW 4.0.7) date 09/18/18 19:10:44*
%MOMM*%
%LPD*%
G01*
G04 APERTURE LIST*
%ADD10C,0.100000*%
%ADD11C,2.286000*%
%ADD12C,17.780000*%
%ADD13R,1.800000X1.800000*%
%ADD14C,1.800000*%
%ADD15C,1.600000*%
%ADD16O,1.600000X1.600000*%
%ADD17R,1.397000X1.397000*%
%ADD18C,1.397000*%
%ADD19C,7.000000*%
%ADD20C,0.250000*%
G04 APERTURE END LIST*
D10*
D11*
X138500000Y-121080000D03*
X117672000Y-121080000D03*
X138500000Y-118032000D03*
X117672000Y-118032000D03*
D12*
X128086000Y-119556000D03*
D13*
X134820000Y-101800000D03*
D14*
X134820000Y-104340000D03*
D13*
X147990000Y-102040000D03*
D14*
X147990000Y-104580000D03*
D15*
X110270000Y-119910000D03*
D16*
X110270000Y-130070000D03*
D17*
X144820000Y-129250000D03*
D18*
X147360000Y-129250000D03*
X149900000Y-129250000D03*
D19*
X141830000Y-97460000D03*
D20*
X138500000Y-121080000D02*
X139642999Y-122222999D01*
X139642999Y-122222999D02*
X140332999Y-122222999D01*
X140332999Y-122222999D02*
X146903501Y-128793501D01*
X138500000Y-119890000D02*
X138500000Y-121080000D01*
X138500000Y-119890000D02*
X138741554Y-119890000D01*
X138741554Y-119890000D02*
X138500000Y-119648446D01*
X138500000Y-119648446D02*
X138500000Y-118032000D01*
X117672000Y-118032000D02*
X117672000Y-116415554D01*
X117672000Y-116415554D02*
X123746555Y-110340999D01*
X138500000Y-116415554D02*
X138500000Y-118032000D01*
X123746555Y-110340999D02*
X132425445Y-110340999D01*
X132425445Y-110340999D02*
X138500000Y-116415554D01*
X117672000Y-118032000D02*
X117672000Y-119648446D01*
X117672000Y-119648446D02*
X117672000Y-121080000D01*
X119890000Y-129590000D02*
X119890000Y-129430000D01*
X119890000Y-129430000D02*
X119890000Y-127752000D01*
X110270000Y-130070000D02*
X111069999Y-129270001D01*
X111069999Y-129270001D02*
X119730001Y-129270001D01*
X119730001Y-129270001D02*
X119890000Y-129430000D01*
X119890000Y-127752000D02*
X128086000Y-119556000D01*
X134820000Y-101800000D02*
X133670000Y-101800000D01*
X133670000Y-101800000D02*
X126670000Y-108800000D01*
X121380000Y-108800000D02*
X110270000Y-119910000D01*
X126670000Y-108800000D02*
X121380000Y-108800000D01*
X147990000Y-102040000D02*
X135060000Y-102040000D01*
X135060000Y-102040000D02*
X134820000Y-101800000D01*
X140520000Y-121610000D02*
X142260000Y-121610000D01*
X142260000Y-121610000D02*
X149900000Y-129250000D01*
X147990000Y-104580000D02*
X140520000Y-112050000D01*
X140520000Y-112050000D02*
X140520000Y-121610000D01*
X134820000Y-104340000D02*
X147750000Y-104340000D01*
X147750000Y-104340000D02*
X147990000Y-104580000D01*
M02*
